<?xml version="1.0" encoding="UTF-8"?>
<svg xmlns="http://www.w3.org/2000/svg" xmlns:xlink="http://www.w3.org/1999/xlink"
     width="1000" height="1000" viewBox="-500.0 -500.0 1000 1000">
<defs>
<linearGradient x1="-208.66509801954385" y1="48.17413373081045" x2="-20.28935944617712" y2="231.90843965932922" gradientUnits="userSpaceOnUse" id="tr_grad_762690">
<stop offset="0" stop-color="purple" />
<stop offset="1" stop-color="orange" />
</linearGradient>
<linearGradient x1="218.01176921751843" y1="19.073558321762793" x2="-243.2003491733496" y2="-21.277273518214358" gradientUnits="userSpaceOnUse" id="tr_grad_515223">
<stop offset="0" stop-color="purple" />
<stop offset="1" stop-color="orange" />
</linearGradient>
</defs>
<rect x="-500.0" y="-500.0" width="1000" height="1000" fill="white" />
<path d="M-18.789806842110487,214.76847496410565 L-21.788912050243756,249.04840435455284" stroke="green" stroke-width="2" />
<circle cx="-21.788912050243756" cy="249.04840435455284" r="0" fill="black" />
<path d="M-84.2372768570155,198.4505879741504 L-97.6826761558868,230.12596372184137" stroke="green" stroke-width="2" />
<circle cx="-97.6826761558868" cy="230.12596372184137" r="0" fill="black" />
<path d="M-49.84128447718991,199.9024734840493 L-52.15566462850335,209.18494526789107" stroke="green" stroke-width="2" />
<path d="M-18.789806842110487,214.76847496410565 A215.588855647901,215.588855647901,0,0,1,-84.2372768570155,198.4505879741504" stroke="green" stroke-width="2" fill="none" />
<circle cx="-52.15566462850335" cy="209.18494526789107" r="0" fill="green" />
<path d="M-149.0200479733054,171.42795523104982 L-164.01454755212055,188.67715382860752" stroke="green" stroke-width="2" />
<circle cx="-164.01454755212055" cy="188.67715382860752" r="0" fill="black" />
<path d="M-194.70063916097055,116.98794657132248 L-214.29155119998146,128.75935410639707" stroke="green" stroke-width="2" />
<circle cx="-214.29155119998146" cy="128.75935410639707" r="0" fill="black" />
<path d="M-157.8221719742342,132.42852629517722 L-174.00260436767172,146.00552114879957" stroke="green" stroke-width="2" />
<path d="M-149.0200479733054,171.42795523104982 A227.1442681043593,227.1442681043593,0,0,1,-194.70063916097055,116.98794657132248" stroke="green" stroke-width="2" fill="none" />
<circle cx="-174.00260436767172" cy="146.00552114879957" r="0" fill="green" />
<path d="M-0.0,0.0 L-109.17513990671044,174.71674610559631" stroke="green" stroke-width="2" />
<path d="M-49.84128447718991,199.9024734840493 A206.0222137134178,206.0222137134178,0,0,1,-157.8221719742342,132.42852629517722" stroke="green" stroke-width="2" fill="none" />
<circle cx="-109.17513990671044" cy="174.71674610559631" r="0" fill="green" />
<path d="M-173.7379629672803,40.11056924009612 L-243.59223307180739,56.237698221524795" stroke="blue" stroke-width="2" />
<circle cx="-243.59223307180739" cy="56.237698221524795" r="0" fill="black" />
<path d="M-237.35231328988803,-20.76563667451866 L-249.04838505681116,-21.78891036191005" stroke="blue" stroke-width="2" />
<circle cx="-249.04838505681116" cy="-21.78891036191005" r="0" fill="black" />
<path d="M-219.31852958063484,-93.0951925351007 L-230.12594589032219,-97.68266858685591" stroke="blue" stroke-width="2" />
<circle cx="-230.12594589032219" cy="-97.68266858685591" r="0" fill="black" />
<path d="M-173.01147587719274,-43.13660574941156 L-231.18165118530862,-57.64005938402179" stroke="blue" stroke-width="2" />
<path d="M-237.35231328988803,-20.76563667451866 A238.2589605671931,238.2589605671931,0,0,1,-219.31852958063484,-93.0951925351007" stroke="blue" stroke-width="2" fill="none" />
<circle cx="-231.18165118530862" cy="-57.64005938402179" r="0" fill="blue" />
<path d="M-33.7530214499381,-0.2945581557322478 L-178.30119565127058,-1.5560109613828148" stroke="blue" stroke-width="2" />
<path d="M-173.7379629672803,40.11056924009612 A178.30798507297595,178.30798507297595,0,0,1,-173.01147587719274,-43.13660574941156" stroke="blue" stroke-width="2" fill="none" />
<circle cx="-178.30119565127058" cy="-1.5560109613828148" r="0" fill="blue" />
<path d="M-173.6876901592436,-150.98440557736433 L-188.6772488574594,-164.0146301594412" stroke="blue" stroke-width="2" />
<circle cx="-188.6772488574594" cy="-164.0146301594412" r="0" fill="black" />
<path d="M-124.6857447158308,-207.5119266721516 L-128.7593840375092,-214.2916010137172" stroke="blue" stroke-width="2" />
<circle cx="-128.7593840375092" cy="-214.2916010137172" r="0" fill="black" />
<path d="M-54.45847812392213,-235.88558414399986 L-56.23770475796897,-243.59226138425757" stroke="blue" stroke-width="2" />
<circle cx="-56.23770475796897" cy="-243.59226138425757" r="0" fill="black" />
<path d="M-86.21137936214778,-213.38065167413677 L-90.68863905582224,-224.4622582812811" stroke="blue" stroke-width="2" />
<path d="M-124.6857447158308,-207.5119266721516 A242.0903439762308,242.0903439762308,0,0,1,-54.45847812392213,-235.88558414399986" stroke="blue" stroke-width="2" fill="none" />
<circle cx="-90.68863905582224" cy="-224.4622582812811" r="0" fill="blue" />
<path d="M-75.75552930992035,-106.20533511319496 L-133.6420759576245,-187.3592804590687" stroke="blue" stroke-width="2" />
<path d="M-173.6876901592436,-150.98440557736433 A230.1384462457402,230.1384462457402,0,0,1,-86.21137936214778,-213.38065167413677" stroke="blue" stroke-width="2" fill="none" />
<circle cx="-133.6420759576245" cy="-187.3592804590687" r="0" fill="blue" />
<path d="M11.369891197066098,-129.9584510591717 L21.78893568691447,-249.04867452293638" stroke="blue" stroke-width="2" />
<circle cx="21.78893568691447" cy="-249.04867452293638" r="0" fill="black" />
<path d="M-33.533740534985355,-123.00033612127565 L-34.3137032114812,-125.86120609404087" stroke="blue" stroke-width="2" />
<path d="M-75.75552930992035,-106.20533511319496 A130.4548712296028,130.4548712296028,0,0,1,11.369891197066098,-129.9584510591717" stroke="blue" stroke-width="2" fill="none" />
<circle cx="-34.3137032114812" cy="-125.86120609404087" r="0" fill="blue" />
<path d="M88.4715705766077,-208.42595885104456 L97.68262695718632,-230.12584781696668" stroke="blue" stroke-width="2" />
<circle cx="97.68262695718632" cy="-230.12584781696668" r="0" fill="black" />
<path d="M153.00515220937697,-176.01229324370922 L164.01448400802772,-188.6770807294907" stroke="blue" stroke-width="2" />
<circle cx="164.01448400802772" cy="-188.6770807294907" r="0" fill="black" />
<path d="M199.90733686667267,-120.11644617786008 L214.29146817708855,-128.7593042212103" stroke="blue" stroke-width="2" />
<circle cx="214.29146817708855" cy="-128.7593042212103" r="0" fill="black" />
<path d="M173.45215180642901,-145.5436366076803 L178.65579382226989,-149.91001070395095" stroke="blue" stroke-width="2" />
<path d="M153.00515220937697,-176.01229324370922 A233.21857553703586,233.21857553703586,0,0,1,199.90733686667267,-120.11644617786008" stroke="blue" stroke-width="2" fill="none" />
<circle cx="178.65579382226989" cy="-149.91001070395095" r="0" fill="blue" />
<path d="M95.66919840559783,-129.28950134561424 L134.6831678400316,-182.01385503263995" stroke="blue" stroke-width="2" />
<path d="M88.4715705766077,-208.42595885104456 A226.42570331848148,226.42570331848148,0,0,1,173.45215180642901,-145.5436366076803" stroke="blue" stroke-width="2" fill="none" />
<circle cx="134.6831678400316" cy="-182.01385503263995" r="0" fill="blue" />
<path d="M156.71424351028136,-36.18033392282973 L243.5921292594902,-56.237674254562954" stroke="blue" stroke-width="2" />
<circle cx="243.5921292594902" cy="-56.237674254562954" r="0" fill="black" />
<path d="M115.05055721786776,-75.43045061065662 L134.5053147755416,-88.18554858308529" stroke="blue" stroke-width="2" />
<path d="M95.66919840559783,-129.28950134561424 A160.83647186433564,160.83647186433564,0,0,1,156.71424351028136,-36.18033392282973" stroke="blue" stroke-width="2" fill="none" />
<circle cx="134.5053147755416" cy="-88.18554858308529" r="0" fill="blue" />
<path d="M186.975259515805,16.358215567450518 L249.0482789192319,21.788901076075067" stroke="blue" stroke-width="2" />
<circle cx="249.0482789192319" cy="21.788901076075067" r="0" fill="black" />
<path d="M172.76907234049273,73.33612022843448 L230.12584781696668,97.6826269571863" stroke="blue" stroke-width="2" />
<circle cx="230.12584781696668" cy="97.6826269571863" r="0" fill="black" />
<path d="M133.48668179375093,33.28196777779904 L182.11429510220376,45.40619348702604" stroke="blue" stroke-width="2" />
<path d="M186.975259515805,16.358215567450518 A187.68947463178057,187.68947463178057,0,0,1,172.76907234049273,73.33612022843448" stroke="blue" stroke-width="2" fill="none" />
<circle cx="182.11429510220376" cy="45.40619348702604" r="0" fill="blue" />
<path d="M129.73583533362753,-22.001405705284306 L135.63660004529117,-23.002093896475888" stroke="blue" stroke-width="2" />
<path d="M115.05055721786776,-75.43045061065662 A137.5731935933326,137.5731935933326,0,0,1,133.48668179375093,33.28196777779904" stroke="blue" stroke-width="2" fill="none" />
<circle cx="135.63660004529117" cy="-23.002093896475888" r="0" fill="blue" />
<path d="M99.31085924987325,86.3296128670487 L188.67672254381824,164.01417264197298" stroke="blue" stroke-width="2" />
<circle cx="188.67672254381824" cy="164.01417264197298" r="0" fill="black" />
<path d="M122.74069536296744,34.4719616794538 L126.68661914794576,35.58018200608279" stroke="blue" stroke-width="2" />
<path d="M129.73583533362753,-22.001405705284306 A131.588178886717,131.588178886717,0,0,1,99.31085924987325,86.3296128670487" stroke="blue" stroke-width="2" fill="none" />
<circle cx="126.68661914794576" cy="35.58018200608279" r="0" fill="blue" />
<path d="M23.958850430772536,-23.776599999641675 L90.49227227272405,-89.80391472053815" stroke="blue" stroke-width="2" />
<path d="M-33.533740534985355,-123.00033612127565 A127.48958561472584,127.48958561472584,0,0,1,122.74069536296744,34.4719616794538" stroke="blue" stroke-width="2" fill="none" />
<circle cx="90.49227227272405" cy="-89.80391472053815" r="0" fill="blue" />
<path d="M-11.149391828087916,-27.401887664097856 L-12.721360728237533,-31.265319488678596" stroke="blue" stroke-width="2" />
<path d="M-33.7530214499381,-0.2945581557322478 A33.75430671050866,33.75430671050866,0,0,1,23.958850430772536,-23.776599999641675" stroke="blue" stroke-width="2" fill="none" />
<circle cx="-12.721360728237533" cy="-31.265319488678596" r="0" fill="blue" />
<path d="M110.18201076242607,183.3736598360295 L128.75945387677075,214.29171724576725" stroke="blue" stroke-width="2" />
<circle cx="128.75945387677075" cy="214.29171724576725" r="0" fill="black" />
<path d="M48.12374210404422,208.44682790393975 L56.237735261375036,243.59239350902484" stroke="blue" stroke-width="2" />
<circle cx="56.237735261375036" cy="243.59239350902484" r="0" fill="black" />
<path d="M11.082103963292269,27.42916982773729 L80.13952699445768,198.35228970298232" stroke="blue" stroke-width="2" />
<path d="M110.18201076242607,183.3736598360295 A213.92983573431556,213.92983573431556,0,0,1,48.12374210404422,208.44682790393975" stroke="blue" stroke-width="2" fill="none" />
<circle cx="80.13952699445768" cy="198.35228970298232" r="0" fill="blue" />
<path d="M0.0,-0.0 L27.415549389578537,-11.115756265754118" stroke="blue" stroke-width="2" />
<path d="M-11.149391828087916,-27.401887664097856 A29.58331262201838,29.58331262201838,0,0,1,11.082103963292269,27.42916982773729" stroke="blue" stroke-width="2" fill="none" />
<circle cx="27.415549389578537" cy="-11.115756265754118" r="0" fill="blue" />
<path d="M-0.0,0.0 A0.0,0.0,0,0,1,0.0,-0.0" stroke="blue" stroke-width="2" fill="none" />
<text x="-23.096248191458628" y="263.99132482592904" font-size="12" transform="rotate(-85.0,-23.096248191458628,263.99132482592904)" text-anchor="end" dominant-baseline="middle" font-family="Arial">A</text>
<text x="-103.5436430832259" y="243.93353652362796" font-size="12" transform="rotate(-67.0,-103.5436430832259,243.93353652362796)" text-anchor="end" dominant-baseline="middle" font-family="Arial">B</text>
<text x="-173.85543298697814" y="199.9977975319491" font-size="12" transform="rotate(-49.0,-173.85543298697814,199.9977975319491)" text-anchor="end" dominant-baseline="middle" font-family="Arial">C</text>
<text x="-227.14906071051314" y="136.48492523004788" font-size="12" transform="rotate(-31.0,-227.14906071051314,136.48492523004788)" text-anchor="end" dominant-baseline="middle" font-family="Arial">D</text>
<text x="-258.2077840435859" y="59.61196403668277" font-size="12" transform="rotate(-13.0,-258.2077840435859,59.61196403668277)" text-anchor="end" dominant-baseline="middle" font-family="Arial">E</text>
<text x="-263.9913055281873" y="-23.09624650312492" font-size="12" transform="rotate(5.0,-263.9913055281873,-23.09624650312492)" text-anchor="end" dominant-baseline="middle" font-family="Arial">F</text>
<text x="-243.93351869210878" y="-103.543635514195" font-size="12" transform="rotate(23.0,-243.93351869210878,-103.543635514195)" text-anchor="end" dominant-baseline="middle" font-family="Arial">G</text>
<text x="-199.997892560801" y="-173.8555155942988" font-size="12" transform="rotate(41.0,-199.997892560801,-173.8555155942988)" text-anchor="end" dominant-baseline="middle" font-family="Arial">H</text>
<text x="-136.48495516116" y="-227.1491105242489" font-size="12" transform="rotate(59.0,-136.48495516116,-227.1491105242489)" text-anchor="end" dominant-baseline="middle" font-family="Arial">I</text>
<text x="-59.61197057312695" y="-258.2078123560361" font-size="12" transform="rotate(77.0,-59.61197057312695,-258.2078123560361)" text-anchor="end" dominant-baseline="middle" font-family="Arial">J</text>
<text x="23.09627182812934" y="-263.99159499431255" font-size="12" transform="rotate(275.0,23.09627182812934,-263.99159499431255)" text-anchor="start" dominant-baseline="middle" font-family="Arial">K</text>
<text x="103.54359388452542" y="-243.93342061875327" font-size="12" transform="rotate(293.0,103.54359388452542,-243.93342061875327)" text-anchor="start" dominant-baseline="middle" font-family="Arial">L</text>
<text x="173.85536944288532" y="-199.9977244328323" font-size="12" transform="rotate(311.0,173.85536944288532,-199.9977244328323)" text-anchor="start" dominant-baseline="middle" font-family="Arial">M</text>
<text x="227.14897768762023" y="-136.4848753448611" font-size="12" transform="rotate(329.0,227.14897768762023,-136.4848753448611)" text-anchor="start" dominant-baseline="middle" font-family="Arial">N</text>
<text x="258.20768023126874" y="-59.61194006972093" font-size="12" transform="rotate(347.0,258.20768023126874,-59.61194006972093)" text-anchor="start" dominant-baseline="middle" font-family="Arial">O</text>
<text x="263.9911993906081" y="23.096237217289936" font-size="12" transform="rotate(365.0,263.9911993906081,23.096237217289936)" text-anchor="start" dominant-baseline="middle" font-family="Arial">P</text>
<text x="243.93342061875327" y="103.54359388452541" font-size="12" transform="rotate(383.0,243.93342061875327,103.54359388452541)" text-anchor="start" dominant-baseline="middle" font-family="Arial">Q</text>
<text x="199.99736624715985" y="173.8550580768306" font-size="12" transform="rotate(401.0,199.99736624715985,173.8550580768306)" text-anchor="start" dominant-baseline="middle" font-family="Arial">R</text>
<text x="136.48502500042156" y="227.14922675629893" font-size="12" transform="rotate(419.0,136.48502500042156,227.14922675629893)" text-anchor="start" dominant-baseline="middle" font-family="Arial">S</text>
<text x="59.61200107653301" y="258.2079444808034" font-size="12" transform="rotate(437.0,59.61200107653301,258.2079444808034)" text-anchor="start" dominant-baseline="middle" font-family="Arial">T</text>
<path d="M-24.839363046411794,278.14171609586765 L-29.839363046411794,286.8019701337121 L-19.839363046411794,286.8019701337121 Z" fill="blue" opacity="1.0" stroke="black" stroke-width="1" />
<path d="M-111.35826565301137,256.5701309007805 L-116.35826565301137,265.2303849386249 L-106.35826565301137,265.2303849386249 Z" fill="blue" opacity="1.0" stroke="black" stroke-width="1" />
<path d="M-186.9766135667883,209.31848644450827 L-191.9766135667883,217.97874048235266 L-181.9766135667883,217.97874048235266 Z" fill="blue" opacity="1.0" stroke="black" stroke-width="1" />
<path d="M-244.2924067245554,141.01218403635272 L-249.2924067245554,149.67243807419712 L-239.2924067245554,149.67243807419712 Z" fill="blue" opacity="1.0" stroke="black" stroke-width="1" />
<rect x="-68.11099166000426" y="-281.6952136517408" width="8.0" height="8.0" fill="orange" opacity="1.0" stroke="black" stroke-width="1" />
<rect x="182.97655002269548" y="-219.09191603728775" width="8.0" height="8.0" fill="orange" opacity="1.0" stroke="black" stroke-width="1" />
<circle cx="13.45370009503577" cy="-153.7764957519246" r="7.0" fill="red" opacity="1.0" />
<circle cx="16.579413441990283" cy="-189.50356279105404" r="7.0" fill="orange" opacity="1.0" />
<circle cx="19.7051267889448" cy="-225.23062983018346" r="7.0" fill="darkgreen" opacity="1.0" />
<path d="M24.414765810443832,349.14741759093846 A350.0,350.0,0,0,1,-84.67266345988372,339.60350419659875 L-79.83422554789037,320.19758967107884 A330.0,330.0,0,0,0,23.019636335561326,329.196136585742 Z" fill="#8d5fab" stroke="none" />
<path d="M-84.67266345988372,339.60350419659875 A350.0,350.0,0,0,1,-185.47174248162167,296.81683365474913 L-174.87335719695758,279.8558717316206 A330.0,330.0,0,0,0,-79.83422554789037,320.19758967107884 Z" fill="#b29ecc" stroke="none" />
<path d="M-185.47174248162167,296.81683365474913 A350.0,350.0,0,0,1,-268.11555509164225,224.97566339028882 L-252.7946662292627,212.11991119655804 A330.0,330.0,0,0,0,-174.87335719695758,279.8558717316206 Z" fill="#d1d3e7" stroke="none" />
<path d="M-268.11555509164225,224.97566339028882 A350.0,350.0,0,0,1,-324.51434909837553,131.11230769556929 L-305.9706720070398,123.62017582725103 A330.0,330.0,0,0,0,-252.7946662292627,212.11991119655804 Z" fill="#e0ecf4" stroke="none" />
<path d="M-324.51434909837553,131.11230769556929 A350.0,350.0,0,0,1,-349.14741759093846,24.414765810443935 L-329.196136585742,23.019636335561422 A330.0,330.0,0,0,0,-305.9706720070398,123.62017582725103 Z" fill="#9165af" stroke="none" />
<path d="M-349.14741759093846,24.414765810443935 A350.0,350.0,0,0,1,-339.60350419659875,-84.67266345988362 L-320.19758967107884,-79.83422554789028 A330.0,330.0,0,0,0,-329.196136585742,23.019636335561422 Z" fill="#d0d2e6" stroke="none" />
<path d="M-339.60350419659875,-84.67266345988362 A350.0,350.0,0,0,1,-296.81683365474913,-185.47174248162167 L-279.8558717316206,-174.87335719695758 A330.0,330.0,0,0,0,-320.19758967107884,-79.83422554789028 Z" fill="#a181bd" stroke="none" />
<path d="M-296.81683365474913,-185.47174248162167 A350.0,350.0,0,0,1,-224.97566339028882,-268.11555509164225 L-212.11991119655804,-252.7946662292627 A330.0,330.0,0,0,0,-279.8558717316206,-174.87335719695758 Z" fill="#a88ec3" stroke="none" />
<path d="M-224.97566339028882,-268.11555509164225 A350.0,350.0,0,0,1,-131.1123076955693,-324.51434909837553 L-123.62017582725106,-305.9706720070398 A330.0,330.0,0,0,0,-212.11991119655804,-252.7946662292627 Z" fill="#b9a9d1" stroke="none" />
<path d="M-131.1123076955693,-324.51434909837553 A350.0,350.0,0,0,1,-24.414765810443953,-349.14741759093846 L-23.01963633556144,-329.196136585742 A330.0,330.0,0,0,0,-123.62017582725106,-305.9706720070398 Z" fill="#a182bd" stroke="none" />
<path d="M-24.414765810443953,-349.14741759093846 A350.0,350.0,0,0,1,84.67266345988361,-339.6035041965988 L79.83422554789026,-320.19758967107884 A330.0,330.0,0,0,0,-23.01963633556144,-329.196136585742 Z" fill="#c8c3df" stroke="none" />
<path d="M84.67266345988361,-339.6035041965988 A350.0,350.0,0,0,1,185.47174248162165,-296.8168336547492 L174.87335719695756,-279.85587173162065 A330.0,330.0,0,0,0,79.83422554789026,-320.19758967107884 Z" fill="#8856a7" stroke="none" />
<path d="M185.47174248162165,-296.8168336547492 A350.0,350.0,0,0,1,268.11555509164225,-224.97566339028884 L252.79466622926267,-212.11991119655806 A330.0,330.0,0,0,0,174.87335719695756,-279.85587173162065 Z" fill="#bbadd4" stroke="none" />
<path d="M268.11555509164225,-224.97566339028884 A350.0,350.0,0,0,1,324.51434909837553,-131.1123076955693 L305.9706720070398,-123.62017582725107 A330.0,330.0,0,0,0,252.79466622926267,-212.11991119655806 Z" fill="#dfebf3" stroke="none" />
<path d="M324.51434909837553,-131.1123076955693 A350.0,350.0,0,0,1,349.14741759093846,-24.414765810443974 L329.196136585742,-23.019636335561458 A330.0,330.0,0,0,0,305.9706720070398,-123.62017582725107 Z" fill="#9a74b6" stroke="none" />
<path d="M349.14741759093846,-24.414765810443974 A350.0,350.0,0,0,1,339.6035041965988,84.67266345988358 L320.19758967107884,79.83422554789023 A330.0,330.0,0,0,0,329.196136585742,-23.019636335561458 Z" fill="#b7a6d0" stroke="none" />
<path d="M339.6035041965988,84.67266345988358 A350.0,350.0,0,0,1,296.8168336547492,185.47174248162165 L279.85587173162065,174.87335719695756 A330.0,330.0,0,0,0,320.19758967107884,79.83422554789023 Z" fill="#956cb2" stroke="none" />
<path d="M296.8168336547492,185.47174248162165 A350.0,350.0,0,0,1,224.97566339028884,268.11555509164225 L212.11991119655806,252.79466622926267 A330.0,330.0,0,0,0,279.85587173162065,174.87335719695756 Z" fill="#a588c1" stroke="none" />
<path d="M224.97566339028884,268.11555509164225 A350.0,350.0,0,0,1,131.11230769556934,324.51434909837553 L123.62017582725109,305.97067200703975 A330.0,330.0,0,0,0,212.11991119655806,252.79466622926267 Z" fill="#bcafd4" stroke="none" />
<path d="M131.11230769556934,324.51434909837553 A350.0,350.0,0,0,1,24.414765810443996,349.14741759093846 L23.019636335561483,329.196136585742 A330.0,330.0,0,0,0,123.62017582725109,305.97067200703975 Z" fill="#a98ec4" stroke="none" />
<use xlink:href="#tr_grad_762690" />
<path d="M-208.66509801954385,48.17413373081045 C-130.71549283672502,30.17804938330124,-13.316900026364461,152.2128638119896,-20.28935944617712,231.90843965932922" stroke-width="3.0" fill="none" stroke-opacity="0.6" stroke="url(#tr_grad_762690)" />
<use xlink:href="#tr_grad_515223" />
<path d="M218.01176921751843,19.073558321762793 C138.3161933701788,12.101098901950166,-163.50477332600994,-14.304814098401721,-243.2003491733496,-21.277273518214358" stroke-width="1.5" fill="none" stroke-opacity="0.6" stroke="url(#tr_grad_515223)" />
<circle cx="0" cy="0" r="0.0" fill="none" stroke="gray" stroke-width="1.0" stroke-dasharray="3,3" />
<text x="0.0" y="0.0" font-size="10" fill="black" stroke="white" stroke-width="0.5" paint-order="stroke" text-anchor="middle" dominant-baseline="middle" font-family="Arial">0</text>
<circle cx="0" cy="0" r="48.42863979874142" fill="none" stroke="gray" stroke-width="1.0" stroke-dasharray="3,3" />
<text x="2.96539893582944e-15" y="48.42863979874142" font-size="10" fill="black" stroke="white" stroke-width="0.5" paint-order="stroke" text-anchor="middle" dominant-baseline="middle" font-family="Arial">0.5</text>
<circle cx="0" cy="0" r="96.85727959748284" fill="none" stroke="gray" stroke-width="1.0" stroke-dasharray="3,3" />
<text x="5.93079787165888e-15" y="96.85727959748284" font-size="10" fill="black" stroke="white" stroke-width="0.5" paint-order="stroke" text-anchor="middle" dominant-baseline="middle" font-family="Arial">1.0</text>
<circle cx="0" cy="0" r="145.28591939622427" fill="none" stroke="gray" stroke-width="1.0" stroke-dasharray="3,3" />
<text x="8.89619680748832e-15" y="145.28591939622427" font-size="10" fill="black" stroke="white" stroke-width="0.5" paint-order="stroke" text-anchor="middle" dominant-baseline="middle" font-family="Arial">1.5</text>
<circle cx="0" cy="0" r="193.7145591949657" fill="none" stroke="gray" stroke-width="1.0" stroke-dasharray="3,3" />
<text x="1.186159574331776e-14" y="193.7145591949657" font-size="10" fill="black" stroke="white" stroke-width="0.5" paint-order="stroke" text-anchor="middle" dominant-baseline="middle" font-family="Arial">2.0</text>
<circle cx="0" cy="0" r="242.1431989937071" fill="none" stroke="gray" stroke-width="1.0" stroke-dasharray="3,3" />
<text x="1.48269946791472e-14" y="242.1431989937071" font-size="10" fill="black" stroke="white" stroke-width="0.5" paint-order="stroke" text-anchor="middle" dominant-baseline="middle" font-family="Arial">2.5</text>
<text x="1.6051641478294552e-14" y="262.1431989937071" font-size="12" font-weight="bold" text-anchor="middle" dominant-baseline="middle"></text>
<path d="M-165.32428489999901,66.79534686704285 L-241.06753277384715,97.3976054380105 A259.99970942816117,259.99970942816117,0,0,1,-220.49225858177607,-137.7788547210182 L-151.2137472706257,-94.48883625677668 A178.30798507297595,178.30798507297595,0,0,0,-165.32428489999901,66.79534686704285 Z" fill="orange" fill-opacity="0.3" stroke="none" />
</svg>