<?xml version="1.0" encoding="UTF-8"?>
<svg xmlns="http://www.w3.org/2000/svg" xmlns:xlink="http://www.w3.org/1999/xlink"
     width="600" height="600" viewBox="-300.0 -300.0 600 600">
<defs>
<linearGradient x1="8.727793967364448" y1="-36.84210526315788" x2="168.22151399318432" y2="-36.84210526315788" gradientUnits="userSpaceOnUse" id="grad_4925526832">
<stop offset="0" stop-color="purple" />
<stop offset="1" stop-color="red" />
</linearGradient>
<linearGradient x1="142.6461556009097" y1="-115.78947368421052" x2="172.4708675580145" y2="-200.0" gradientUnits="userSpaceOnUse" id="tr_grad_78131">
<stop offset="0" stop-color="purple" />
<stop offset="1" stop-color="orange" />
</linearGradient>
</defs>
<rect x="-300.0" y="-300.0" width="600" height="600" fill="white" />
<path d="M144.9421690366416,-200.0 L199.99956607938742,-200.0" stroke="green" stroke-width="2" stroke-linecap="round" />
<circle cx="199.99956607938742" cy="-200.0" r="0" fill="black" />
<path d="M144.9421690366416,-178.94736842105263 L199.99956607938742,-178.94736842105263" stroke="green" stroke-width="2" stroke-linecap="round" />
<circle cx="199.99956607938742" cy="-178.94736842105263" r="0" fill="black" />
<path d="M129.6355419414685,-189.4736842105263 L144.9421690366416,-189.4736842105263" stroke="green" stroke-width="2" stroke-linecap="round" />
<path d="M144.9421690366416,-200.0 L144.9421690366416,-178.94736842105263" stroke="green" stroke-width="2" stroke-linecap="round" />
<circle cx="144.9421690366416" cy="-189.4736842105263" r="0" fill="green" />
<path d="M163.4308289669749,-157.89473684210526 L199.99948859356374,-157.89473684210526" stroke="green" stroke-width="2" stroke-linecap="round" />
<circle cx="199.99948859356374" cy="-157.89473684210526" r="0" fill="black" />
<path d="M163.4308289669749,-136.8421052631579 L199.99948859356374,-136.8421052631579" stroke="green" stroke-width="2" stroke-linecap="round" />
<circle cx="199.99948859356374" cy="-136.8421052631579" r="0" fill="black" />
<path d="M129.6355419414685,-147.36842105263156 L163.4308289669749,-147.36842105263156" stroke="green" stroke-width="2" stroke-linecap="round" />
<path d="M163.4308289669749,-157.89473684210526 L163.4308289669749,-136.8421052631579" stroke="green" stroke-width="2" stroke-linecap="round" />
<circle cx="163.4308289669749" cy="-147.36842105263156" r="0" fill="green" />
<path d="M-200.0,-168.42105263157893 L129.6355419414685,-168.42105263157893" stroke="green" stroke-width="2" stroke-linecap="round" />
<path d="M129.6355419414685,-189.4736842105263 L129.6355419414685,-147.36842105263156" stroke="green" stroke-width="2" stroke-linecap="round" />
<circle cx="129.6355419414685" cy="-168.42105263157893" r="0" fill="green" />
<path d="M85.2927761167615,-115.78947368421052 L199.99953508505791,-115.78947368421052" stroke="blue" stroke-width="2" stroke-linecap="round" />
<circle cx="199.99953508505791" cy="-115.78947368421052" r="0" fill="black" />
<path d="M181.214336907509,-94.73684210526315 L199.99953508505791,-94.73684210526315" stroke="blue" stroke-width="2" stroke-linecap="round" />
<circle cx="199.99953508505791" cy="-94.73684210526315" r="0" fill="black" />
<path d="M181.214336907509,-73.68421052631578 L199.99953508505791,-73.68421052631578" stroke="blue" stroke-width="2" stroke-linecap="round" />
<circle cx="199.99953508505791" cy="-73.68421052631578" r="0" fill="black" />
<path d="M85.2927761167615,-84.21052631578947 L181.214336907509,-84.21052631578947" stroke="blue" stroke-width="2" stroke-linecap="round" />
<path d="M181.214336907509,-94.73684210526315 L181.214336907509,-73.68421052631578" stroke="blue" stroke-width="2" stroke-linecap="round" />
<circle cx="181.214336907509" cy="-84.21052631578947" r="0" fill="blue" />
<path d="M-145.99310926318614,-100.0 L85.2927761167615,-100.0" stroke="blue" stroke-width="2" stroke-linecap="round" />
<path d="M85.2927761167615,-115.78947368421052 L85.2927761167615,-84.21052631578947" stroke="blue" stroke-width="2" stroke-linecap="round" />
<circle cx="85.2927761167615" cy="-100.0" r="0" fill="blue" />
<path d="M168.22151399318432,-52.63157894736841 L199.9996900567054,-52.63157894736841" stroke="blue" stroke-width="2" stroke-linecap="round" />
<circle cx="199.9996900567054" cy="-52.63157894736841" r="0" fill="black" />
<path d="M187.3445503619693,-31.57894736842104 L199.9995815765522,-31.57894736842104" stroke="blue" stroke-width="2" stroke-linecap="round" />
<circle cx="199.9995815765522" cy="-31.57894736842104" r="0" fill="black" />
<path d="M187.3445503619693,-10.52631578947367 L199.9995815765522,-10.52631578947367" stroke="blue" stroke-width="2" stroke-linecap="round" />
<circle cx="199.9995815765522" cy="-10.52631578947367" r="0" fill="black" />
<path d="M168.22151399318432,-21.052631578947356 L187.3445503619693,-21.052631578947356" stroke="blue" stroke-width="2" stroke-linecap="round" />
<path d="M187.3445503619693,-31.57894736842104 L187.3445503619693,-10.52631578947367" stroke="blue" stroke-width="2" stroke-linecap="round" />
<circle cx="187.3445503619693" cy="-21.052631578947356" r="0" fill="blue" />
<path d="M8.727793967364448,-36.84210526315788 L168.22151399318432,-36.84210526315788" stroke="blue" stroke-width="2" stroke-linecap="round" />
<path d="M168.22151399318432,-52.63157894736841 L168.22151399318432,-21.052631578947356" stroke="blue" stroke-width="2" stroke-linecap="round" />
<circle cx="168.22151399318432" cy="-36.84210526315788" r="0" fill="blue" />
<path d="M8.727793967364448,10.5263157894737 L200.0,10.5263157894737" stroke="blue" stroke-width="2" stroke-linecap="round" />
<circle cx="200.0" cy="10.5263157894737" r="0" fill="black" />
<path d="M3.983336983561344,-13.157894736842092 L8.727793967364448,-13.157894736842092" stroke="blue" stroke-width="2" stroke-linecap="round" />
<path d="M8.727793967364448,-36.84210526315788 L8.727793967364448,10.5263157894737" stroke="blue" stroke-width="2" stroke-linecap="round" />
<circle cx="8.727793967364448" cy="-13.157894736842092" r="0" fill="blue" />
<path d="M162.28112530957037,31.57894736842107 L199.99936461624583,31.57894736842107" stroke="blue" stroke-width="2" stroke-linecap="round" />
<circle cx="199.99936461624583" cy="31.57894736842107" r="0" fill="black" />
<path d="M173.14972085925734,52.63157894736844 L199.99933362191643,52.63157894736844" stroke="blue" stroke-width="2" stroke-linecap="round" />
<circle cx="199.99933362191643" cy="52.63157894736844" r="0" fill="black" />
<path d="M173.14972085925734,73.68421052631584 L199.99933362191643,73.68421052631584" stroke="blue" stroke-width="2" stroke-linecap="round" />
<circle cx="199.99933362191643" cy="73.68421052631584" r="0" fill="black" />
<path d="M162.28112530957037,63.15789473684214 L173.14972085925734,63.15789473684214" stroke="blue" stroke-width="2" stroke-linecap="round" />
<path d="M173.14972085925734,52.63157894736844 L173.14972085925734,73.68421052631584" stroke="blue" stroke-width="2" stroke-linecap="round" />
<circle cx="173.14972085925734" cy="63.15789473684214" r="0" fill="blue" />
<path d="M57.338354982937005,47.368421052631604 L162.28112530957037,47.368421052631604" stroke="blue" stroke-width="2" stroke-linecap="round" />
<path d="M162.28112530957037,31.57894736842107 L162.28112530957037,63.15789473684214" stroke="blue" stroke-width="2" stroke-linecap="round" />
<circle cx="162.28112530957037" cy="47.368421052631604" r="0" fill="blue" />
<path d="M57.338354982937005,94.73684210526318 L199.99936461624583,94.73684210526318" stroke="blue" stroke-width="2" stroke-linecap="round" />
<circle cx="199.99936461624583" cy="94.73684210526318" r="0" fill="black" />
<path d="M20.117109749332172,71.0526315789474 L57.338354982937005,71.0526315789474" stroke="blue" stroke-width="2" stroke-linecap="round" />
<path d="M57.338354982937005,47.368421052631604 L57.338354982937005,94.73684210526318" stroke="blue" stroke-width="2" stroke-linecap="round" />
<circle cx="57.338354982937005" cy="71.0526315789474" r="0" fill="blue" />
<path d="M100.30315941084893,115.78947368421052 L199.99936461624583,115.78947368421052" stroke="blue" stroke-width="2" stroke-linecap="round" />
<circle cx="199.99936461624583" cy="115.78947368421052" r="0" fill="black" />
<path d="M100.30315941084893,136.84210526315792 L199.99936461624583,136.84210526315792" stroke="blue" stroke-width="2" stroke-linecap="round" />
<circle cx="199.99936461624583" cy="136.84210526315792" r="0" fill="black" />
<path d="M20.117109749332172,126.31578947368422 L100.30315941084893,126.31578947368422" stroke="blue" stroke-width="2" stroke-linecap="round" />
<path d="M100.30315941084893,115.78947368421052 L100.30315941084893,136.84210526315792" stroke="blue" stroke-width="2" stroke-linecap="round" />
<circle cx="100.30315941084893" cy="126.31578947368422" r="0" fill="blue" />
<path d="M10.541086218747182,98.68421052631581 L20.117109749332172,98.68421052631581" stroke="blue" stroke-width="2" stroke-linecap="round" />
<path d="M20.117109749332172,71.0526315789474 L20.117109749332172,126.31578947368422" stroke="blue" stroke-width="2" stroke-linecap="round" />
<circle cx="20.117109749332172" cy="98.68421052631581" r="0" fill="blue" />
<path d="M10.541086218747182,157.89473684210532 L199.9985742608443,157.89473684210532" stroke="blue" stroke-width="2" stroke-linecap="round" />
<circle cx="199.9985742608443" cy="157.89473684210532" r="0" fill="black" />
<path d="M3.983336983561344,128.28947368421058 L10.541086218747182,128.28947368421058" stroke="blue" stroke-width="2" stroke-linecap="round" />
<path d="M10.541086218747182,98.68421052631581 L10.541086218747182,157.89473684210532" stroke="blue" stroke-width="2" stroke-linecap="round" />
<circle cx="10.541086218747182" cy="128.28947368421058" r="0" fill="blue" />
<path d="M-145.99310926318614,57.56578947368424 L3.983336983561344,57.56578947368424" stroke="blue" stroke-width="2" stroke-linecap="round" />
<path d="M3.983336983561344,-13.157894736842092 L3.983336983561344,128.28947368421058" stroke="blue" stroke-width="2" stroke-linecap="round" />
<circle cx="3.983336983561344" cy="57.56578947368424" r="0" fill="blue" />
<path d="M-152.6666998047706,-21.21710526315788 L-145.99310926318614,-21.21710526315788" stroke="blue" stroke-width="2" stroke-linecap="round" />
<path d="M-145.99310926318614,-100.0 L-145.99310926318614,57.56578947368424" stroke="blue" stroke-width="2" stroke-linecap="round" />
<circle cx="-145.99310926318614" cy="-21.21710526315788" r="0" fill="blue" />
<path d="M142.28773717490486,178.94736842105266 L199.99979853685846,178.94736842105266" stroke="blue" stroke-width="2" stroke-linecap="round" />
<circle cx="199.99979853685846" cy="178.94736842105266" r="0" fill="black" />
<path d="M142.28773717490486,200.0 L199.99979853685846,200.0" stroke="blue" stroke-width="2" stroke-linecap="round" />
<circle cx="199.99979853685846" cy="200.0" r="0" fill="black" />
<path d="M-152.6666998047706,189.47368421052633 L142.28773717490486,189.47368421052633" stroke="blue" stroke-width="2" stroke-linecap="round" />
<path d="M142.28773717490486,178.94736842105266 L142.28773717490486,200.0" stroke="blue" stroke-width="2" stroke-linecap="round" />
<circle cx="142.28773717490486" cy="189.47368421052633" r="0" fill="blue" />
<path d="M-200.0,84.12828947368422 L-152.6666998047706,84.12828947368422" stroke="blue" stroke-width="2" stroke-linecap="round" />
<path d="M-152.6666998047706,-21.21710526315788 L-152.6666998047706,189.47368421052633" stroke="blue" stroke-width="2" stroke-linecap="round" />
<circle cx="-152.6666998047706" cy="84.12828947368422" r="0" fill="blue" />
<path d="M-220.0,-42.146381578947356 L-200.0,-42.146381578947356" stroke="blue" stroke-width="2" />
<path d="M-200.0,-168.42105263157893 L-200.0,84.12828947368422" stroke="blue" stroke-width="2" stroke-linecap="round" />
<circle cx="-200.0" cy="-42.146381578947356" r="0" fill="blue" />
<text x="209.99956607938742" y="-200.0" font-size="12" fill="black" font-family="Arial" transform="" text-anchor="middle" dominant-baseline="middle">A</text>
<text x="209.99956607938742" y="-178.94736842105263" font-size="12" fill="black" font-family="Arial" transform="" text-anchor="middle" dominant-baseline="middle">B</text>
<text x="209.99948859356374" y="-157.89473684210526" font-size="12" fill="black" font-family="Arial" transform="" text-anchor="middle" dominant-baseline="middle">C</text>
<text x="209.99948859356374" y="-136.8421052631579" font-size="12" fill="black" font-family="Arial" transform="" text-anchor="middle" dominant-baseline="middle">D</text>
<text x="209.99953508505791" y="-115.78947368421052" font-size="12" fill="black" font-family="Arial" transform="" text-anchor="middle" dominant-baseline="middle">E</text>
<text x="209.99953508505791" y="-94.73684210526315" font-size="12" fill="black" font-family="Arial" transform="" text-anchor="middle" dominant-baseline="middle">F</text>
<text x="209.99953508505791" y="-73.68421052631578" font-size="12" fill="black" font-family="Arial" transform="" text-anchor="middle" dominant-baseline="middle">G</text>
<text x="209.9996900567054" y="-52.63157894736841" font-size="12" fill="black" font-family="Arial" transform="" text-anchor="middle" dominant-baseline="middle">H</text>
<text x="209.9995815765522" y="-31.57894736842104" font-size="12" fill="black" font-family="Arial" transform="" text-anchor="middle" dominant-baseline="middle">I</text>
<text x="209.9995815765522" y="-10.52631578947367" font-size="12" fill="black" font-family="Arial" transform="" text-anchor="middle" dominant-baseline="middle">J</text>
<text x="210.0" y="10.5263157894737" font-size="12" fill="black" font-family="Arial" transform="" text-anchor="middle" dominant-baseline="middle">K</text>
<text x="209.99936461624583" y="31.57894736842107" font-size="12" fill="black" font-family="Arial" transform="" text-anchor="middle" dominant-baseline="middle">L</text>
<text x="209.99933362191643" y="52.63157894736844" font-size="12" fill="black" font-family="Arial" transform="" text-anchor="middle" dominant-baseline="middle">M</text>
<text x="209.99933362191643" y="73.68421052631584" font-size="12" fill="black" font-family="Arial" transform="" text-anchor="middle" dominant-baseline="middle">N</text>
<text x="209.99936461624583" y="94.73684210526318" font-size="12" fill="black" font-family="Arial" transform="" text-anchor="middle" dominant-baseline="middle">O</text>
<text x="209.99936461624583" y="115.78947368421052" font-size="12" fill="black" font-family="Arial" transform="" text-anchor="middle" dominant-baseline="middle">P</text>
<text x="209.99936461624583" y="136.84210526315792" font-size="12" fill="black" font-family="Arial" transform="" text-anchor="middle" dominant-baseline="middle">Q</text>
<text x="209.9985742608443" y="157.89473684210532" font-size="12" fill="black" font-family="Arial" transform="" text-anchor="middle" dominant-baseline="middle">R</text>
<text x="209.99979853685846" y="178.94736842105266" font-size="12" fill="black" font-family="Arial" transform="" text-anchor="middle" dominant-baseline="middle">S</text>
<text x="209.99979853685846" y="200.0" font-size="12" fill="black" font-family="Arial" transform="" text-anchor="middle" dominant-baseline="middle">T</text>
<path d="M234.99956607938742,-205.77350269189625 L229.99956607938742,-197.11324865405186 L239.99956607938742,-197.11324865405186 Z" fill="blue" opacity="1.0" stroke="black" stroke-width="1" />
<path d="M234.99956607938742,-184.72087111294888 L229.99956607938742,-176.0606170751045 L239.99956607938742,-176.0606170751045 Z" fill="blue" opacity="1.0" stroke="black" stroke-width="1" />
<path d="M234.99948859356374,-163.66823953400151 L229.99948859356374,-155.00798549615712 L239.99948859356374,-155.00798549615712 Z" fill="blue" opacity="1.0" stroke="black" stroke-width="1" />
<path d="M234.99948859356374,-142.61560795505414 L229.99948859356374,-133.95535391720975 L239.99948859356374,-133.95535391720975 Z" fill="blue" opacity="1.0" stroke="black" stroke-width="1" />
<rect x="230.9995815765522" y="-14.52631578947367" width="8.0" height="8.0" transform="rotate(45.0,234.9995815765522,-10.52631578947367)" fill="orange" opacity="1.0" stroke="black" stroke-width="1" />
<rect x="230.99933362191643" y="48.63157894736844" width="8.0" height="8.0" transform="rotate(45.0,234.99933362191643,52.63157894736844)" fill="orange" opacity="1.0" stroke="black" stroke-width="1" />
<circle cx="46.98223517389156" cy="10.5263157894737" r="7.0" fill="red" opacity="1.0" />
<circle cx="104.36389698368222" cy="10.5263157894737" r="7.0" fill="orange" opacity="1.0" />
<circle cx="161.7455587934729" cy="10.5263157894737" r="7.0" fill="darkgreen" opacity="1.0" />
<circle cx="30.74487935902792" cy="-168.42105263157893" r="7.0" fill="purple" opacity="1.0" />
<rect x="80.2927761167615" y="-125.78947368421052" width="124.70675896829641" height="62.10526315789474" fill="orange" fill-opacity="0.4" stroke="none" />
<path d="M20.117109749332172,126.31578947368422 L100.30315941084893,126.31578947368422" stroke="blue" stroke-width="5" stroke-linecap="round" />
<use xlink:href="#grad_4925526832" />
<path d="M8.727793967364448,-36.84210526315788 L168.22151399318432,-36.84210526315788" stroke="url(#grad_4925526832)" stroke-width="6" />
<use xlink:href="#tr_grad_78131" />
<path d="M142.6461556009097,-115.78947368421052 C102.64615560090971,-115.78947368421052,132.4708675580145,-200.0,172.4708675580145,-200.0" stroke-width="3.0" fill="none" stroke-opacity="0.6" stroke="url(#tr_grad_78131)" />
<path d="M-220.0,240.0 L187.42911838993138,240.0" stroke="black" stroke-width="2.0" />
<path d="M-200.0,240.0 L-200.0,246.0" stroke="black" stroke-width="2.0" />
<text x="-200.0" y="258.0" font-size="12" font-family="Arial" text-anchor="middle" dominant-baseline="central">0.0</text>
<path d="M-122.51417632201372,240.0 L-122.51417632201372,246.0" stroke="black" stroke-width="2.0" />
<text x="-122.51417632201372" y="258.0" font-size="12" font-family="Arial" text-anchor="middle" dominant-baseline="central">0.5</text>
<path d="M-45.02835264402745,240.0 L-45.02835264402745,246.0" stroke="black" stroke-width="2.0" />
<text x="-45.02835264402745" y="258.0" font-size="12" font-family="Arial" text-anchor="middle" dominant-baseline="central">1.0</text>
<path d="M32.457471033958825,240.0 L32.457471033958825,246.0" stroke="black" stroke-width="2.0" />
<text x="32.457471033958825" y="258.0" font-size="12" font-family="Arial" text-anchor="middle" dominant-baseline="central">1.5</text>
<path d="M109.9432947119451,240.0 L109.9432947119451,246.0" stroke="black" stroke-width="2.0" />
<text x="109.9432947119451" y="258.0" font-size="12" font-family="Arial" text-anchor="middle" dominant-baseline="central">2.0</text>
<path d="M187.42911838993138,240.0 L187.42911838993138,246.0" stroke="black" stroke-width="2.0" />
<text x="187.42911838993138" y="258.0" font-size="12" font-family="Arial" text-anchor="middle" dominant-baseline="central">2.5</text>
<text x="-16.285440805034312" y="272.4" font-size="12" font-family="Arial" text-anchor="middle" dominant-baseline="central">Time</text>
<rect x="250.0" y="-210.52631578947367" width="15" height="21.05263157894734" fill="#ffffff" stroke="black" stroke-width="0.5" />
<rect x="250.0" y="-189.4736842105263" width="15" height="21.05263157894734" fill="#e0e0ff" stroke="black" stroke-width="0.5" />
<rect x="250.0" y="-168.42105263157893" width="15" height="21.05263157894734" fill="#0000ff" stroke="black" stroke-width="0.5" />
<rect x="250.0" y="-147.36842105263156" width="15" height="21.05263157894734" fill="#a0a0ff" stroke="black" stroke-width="0.5" />
<rect x="250.0" y="-126.31578947368419" width="15" height="21.05263157894734" fill="#0d0dff" stroke="black" stroke-width="0.5" />
<rect x="250.0" y="-105.26315789473682" width="15" height="21.05263157894734" fill="#cdcdff" stroke="black" stroke-width="0.5" />
<rect x="250.0" y="-84.21052631578945" width="15" height="21.05263157894734" fill="#0b0bff" stroke="black" stroke-width="0.5" />
<rect x="250.0" y="-63.15789473684208" width="15" height="21.05263157894734" fill="#d9d9ff" stroke="black" stroke-width="0.5" />
<rect x="250.0" y="-42.10526315789471" width="15" height="21.05263157894734" fill="#5959ff" stroke="black" stroke-width="0.5" />
<rect x="250.0" y="-21.05263157894734" width="15" height="21.05263157894734" fill="#f8f8ff" stroke="black" stroke-width="0.5" />
<rect x="250.0" y="2.842170943040401e-14" width="15" height="21.05263157894734" fill="#adadff" stroke="black" stroke-width="0.5" />
<rect x="250.0" y="21.0526315789474" width="15" height="21.05263157894734" fill="#a8a8ff" stroke="black" stroke-width="0.5" />
<rect x="250.0" y="42.10526315789477" width="15" height="21.05263157894734" fill="#d5d5ff" stroke="black" stroke-width="0.5" />
<rect x="250.0" y="63.15789473684217" width="15" height="21.05263157894734" fill="#bfbfff" stroke="black" stroke-width="0.5" />
<rect x="250.0" y="84.21052631578951" width="15" height="21.05263157894734" fill="#2d2dff" stroke="black" stroke-width="0.5" />
<rect x="250.0" y="105.26315789473685" width="15" height="21.05263157894734" fill="#a0a0ff" stroke="black" stroke-width="0.5" />
<rect x="250.0" y="126.31578947368425" width="15" height="21.05263157894734" fill="#0000ff" stroke="black" stroke-width="0.5" />
<rect x="250.0" y="147.36842105263165" width="15" height="21.05263157894734" fill="#4646ff" stroke="black" stroke-width="0.5" />
<rect x="250.0" y="168.421052631579" width="15" height="21.05263157894734" fill="#dbdbff" stroke="black" stroke-width="0.5" />
<rect x="250.0" y="189.47368421052633" width="15" height="21.05263157894734" fill="#e6e6ff" stroke="black" stroke-width="0.5" />
<rect x="270.0" y="-210.52631578947367" width="15" height="21.05263157894734" fill="#c19294" stroke="black" stroke-width="0.5" />
<rect x="270.0" y="-189.4736842105263" width="15" height="21.05263157894734" fill="#fcf1ec" stroke="black" stroke-width="0.5" />
<rect x="270.0" y="-168.42105263157893" width="15" height="21.05263157894734" fill="#b98487" stroke="black" stroke-width="0.5" />
<rect x="270.0" y="-147.36842105263156" width="15" height="21.05263157894734" fill="#b68083" stroke="black" stroke-width="0.5" />
<rect x="270.0" y="-126.31578947368419" width="15" height="21.05263157894734" fill="#e4cac8" stroke="black" stroke-width="0.5" />
<rect x="270.0" y="-105.26315789473682" width="15" height="21.05263157894734" fill="#f1dedb" stroke="black" stroke-width="0.5" />
<rect x="270.0" y="-84.21052631578945" width="15" height="21.05263157894734" fill="#67000d" stroke="black" stroke-width="0.5" />
<rect x="270.0" y="-63.15789473684208" width="15" height="21.05263157894734" fill="#7a1f29" stroke="black" stroke-width="0.5" />
<rect x="270.0" y="-42.10526315789471" width="15" height="21.05263157894734" fill="#a05c62" stroke="black" stroke-width="0.5" />
<rect x="270.0" y="-21.05263157894734" width="15" height="21.05263157894734" fill="#a46368" stroke="black" stroke-width="0.5" />
<rect x="270.0" y="2.842170943040401e-14" width="15" height="21.05263157894734" fill="#a96b70" stroke="black" stroke-width="0.5" />
<rect x="270.0" y="21.0526315789474" width="15" height="21.05263157894734" fill="#ebd5d2" stroke="black" stroke-width="0.5" />
<rect x="270.0" y="42.10526315789477" width="15" height="21.05263157894734" fill="#caa0a2" stroke="black" stroke-width="0.5" />
<rect x="270.0" y="63.15789473684217" width="15" height="21.05263157894734" fill="#6c0915" stroke="black" stroke-width="0.5" />
<rect x="270.0" y="84.21052631578951" width="15" height="21.05263157894734" fill="#fff5f0" stroke="black" stroke-width="0.5" />
<rect x="270.0" y="105.26315789473685" width="15" height="21.05263157894734" fill="#ebd6d3" stroke="black" stroke-width="0.5" />
<rect x="270.0" y="126.31578947368425" width="15" height="21.05263157894734" fill="#f3e1de" stroke="black" stroke-width="0.5" />
<rect x="270.0" y="147.36842105263165" width="15" height="21.05263157894734" fill="#c89d9e" stroke="black" stroke-width="0.5" />
<rect x="270.0" y="168.421052631579" width="15" height="21.05263157894734" fill="#964d54" stroke="black" stroke-width="0.5" />
<rect x="270.0" y="189.47368421052633" width="15" height="21.05263157894734" fill="#ba8589" stroke="black" stroke-width="0.5" />
<circle cx="129.6355419414685" cy="-168.42105263157893" r="5.0" fill="red" stroke="white" stroke-width="1.0" />
<circle cx="3.983336983561344" cy="57.56578947368424" r="5.0" fill="red" stroke="white" stroke-width="1.0" />
</svg>