<?xml version="1.0" encoding="UTF-8"?>
<svg xmlns="http://www.w3.org/2000/svg" xmlns:xlink="http://www.w3.org/1999/xlink"
     width="800" height="800" viewBox="-400.0 -400.0 800 800">
<defs>
<linearGradient x1="-278.09318400889833" y1="-268.5381355932203" x2="58.14836962743476" y2="-268.5381355932203" gradientUnits="userSpaceOnUse" id="grad_4939373808">
<stop offset="0" stop-color="#E41A1C" />
<stop offset="1" stop-color="#377EB8" />
</linearGradient>
<linearGradient x1="58.14836962743476" y1="-294.91525423728814" x2="280.0672907617351" y2="-294.91525423728814" gradientUnits="userSpaceOnUse" id="grad_4939377936">
<stop offset="0" stop-color="#377EB8" />
<stop offset="1" stop-color="#E41A1C" />
</linearGradient>
<linearGradient x1="-267.5698025789489" y1="148.3737751588983" x2="-114.94622030738074" y2="148.3737751588983" gradientUnits="userSpaceOnUse" id="grad_5445727376">
<stop offset="0" stop-color="#E41A1C" />
<stop offset="1" stop-color="#377EB8" />
</linearGradient>
<linearGradient x1="280.0672907617351" y1="-300.0" x2="299.9999999999999" y2="-300.0" gradientUnits="userSpaceOnUse" id="grad_5445329648">
<stop offset="0" stop-color="#E41A1C" />
<stop offset="1" stop-color="#377EB8" />
</linearGradient>
<linearGradient x1="149.55461719559798" y1="-209.74576271186442" x2="255.28066120367305" y2="-209.74576271186442" gradientUnits="userSpaceOnUse" id="grad_5445721088">
<stop offset="0" stop-color="#E41A1C" />
<stop offset="1" stop-color="#377EB8" />
</linearGradient>
<linearGradient x1="149.55461719559798" y1="-172.8813559322034" x2="274.62070263093176" y2="-172.8813559322034" gradientUnits="userSpaceOnUse" id="grad_5445721328">
<stop offset="0" stop-color="#E41A1C" />
<stop offset="1" stop-color="#377EB8" />
</linearGradient>
<linearGradient x1="52.367783302718806" y1="38.13559322033896" x2="230.5231877476582" y2="38.13559322033896" gradientUnits="userSpaceOnUse" id="grad_5445727232">
<stop offset="0" stop-color="#377EB8" />
<stop offset="1" stop-color="#E41A1C" />
</linearGradient>
<linearGradient x1="274.62070263093176" y1="-177.96610169491527" x2="299.9998962416297" y2="-177.96610169491527" gradientUnits="userSpaceOnUse" id="grad_5445721520">
<stop offset="0" stop-color="#377EB8" />
<stop offset="1" stop-color="#E41A1C" />
</linearGradient>
<linearGradient x1="274.62070263093176" y1="-167.79661016949154" x2="299.9998962416297" y2="-167.79661016949154" gradientUnits="userSpaceOnUse" id="grad_5445721568">
<stop offset="0" stop-color="#377EB8" />
<stop offset="1" stop-color="#E41A1C" />
</linearGradient>
<linearGradient x1="276.36280566783546" y1="-208.47457627118644" x2="299.9999999999999" y2="-208.47457627118644" gradientUnits="userSpaceOnUse" id="grad_5445721280">
<stop offset="0" stop-color="#377EB8" />
<stop offset="1" stop-color="#E41A1C" />
</linearGradient>
<linearGradient x1="108.00239889352065" y1="251.6949152542373" x2="271.9624131845069" y2="251.6949152542373" gradientUnits="userSpaceOnUse" id="grad_5445724448">
<stop offset="0" stop-color="#377EB8" />
<stop offset="1" stop-color="#E41A1C" />
</linearGradient>
<linearGradient x1="206.1328114056733" y1="269.49152542372883" x2="299.9999999999998" y2="269.49152542372883" gradientUnits="userSpaceOnUse" id="grad_5445723968">
<stop offset="0" stop-color="#377EB8" />
<stop offset="1" stop-color="#E41A1C" />
</linearGradient>
<linearGradient x1="271.9624131845069" y1="259.3220338983051" x2="299.9999999999999" y2="259.3220338983051" gradientUnits="userSpaceOnUse" id="grad_5445724064">
<stop offset="0" stop-color="#E41A1C" />
<stop offset="1" stop-color="#377EB8" />
</linearGradient>
<linearGradient x1="162.68648405424057" y1="-86.4406779661017" x2="299.9999999999998" y2="-86.4406779661017" gradientUnits="userSpaceOnUse" id="grad_5445728048">
<stop offset="0" stop-color="#E41A1C" />
<stop offset="1" stop-color="#377EB8" />
</linearGradient>
<linearGradient x1="280.7921467364705" y1="-76.27118644067798" x2="299.9999999999998" y2="-76.27118644067798" gradientUnits="userSpaceOnUse" id="grad_5445727952">
<stop offset="0" stop-color="#E41A1C" />
<stop offset="1" stop-color="#377EB8" />
</linearGradient>
<linearGradient x1="279.68193217453666" y1="238.98305084745755" x2="299.9999999999998" y2="238.98305084745755" gradientUnits="userSpaceOnUse" id="grad_5445724160">
<stop offset="0" stop-color="#E41A1C" />
<stop offset="1" stop-color="#377EB8" />
</linearGradient>
<linearGradient x1="197.1157939953647" y1="77.54237288135592" x2="253.31651525438258" y2="77.54237288135592" gradientUnits="userSpaceOnUse" id="grad_5445726608">
<stop offset="0" stop-color="#377EB8" />
<stop offset="1" stop-color="#E41A1C" />
</linearGradient>
<linearGradient x1="253.31651525438258" y1="86.4406779661017" x2="299.9998962416296" y2="86.4406779661017" gradientUnits="userSpaceOnUse" id="grad_5445725456">
<stop offset="0" stop-color="#E41A1C" />
<stop offset="1" stop-color="#377EB8" />
</linearGradient>
</defs>
<rect x="-400.0" y="-400.0" width="800" height="800" fill="white" />
<use xlink:href="#grad_4939373808" />
<path d="M-278.09318400889833,-268.5381355932203 L58.14836962743476,-268.5381355932203" stroke="url(#grad_4939373808)" stroke-width="4" />
<path d="M-278.09318400889833,14.659610037076263 L-267.5698025789489,14.659610037076263" stroke="#E41A1C" stroke-width="4" stroke-linecap="round" />
<use xlink:href="#grad_4939377936" />
<path d="M58.14836962743476,-294.91525423728814 L280.0672907617351,-294.91525423728814" stroke="url(#grad_4939377936)" stroke-width="4" />
<path d="M58.14836962743476,-242.16101694915253 L193.76823769520826,-242.16101694915253" stroke="#377EB8" stroke-width="4" stroke-linecap="round" />
<path d="M-267.5698025789489,-119.05455508474577 L-95.8731491668376,-119.05455508474577" stroke="#E41A1C" stroke-width="4" stroke-linecap="round" />
<use xlink:href="#grad_5445727376" />
<path d="M-267.5698025789489,148.3737751588983 L-114.94622030738074,148.3737751588983" stroke="url(#grad_5445727376)" stroke-width="4" />
<use xlink:href="#grad_5445329648" />
<path d="M280.0672907617351,-300.0 L299.9999999999999,-300.0" stroke="url(#grad_5445329648)" stroke-width="4" />
<path d="M280.0672907617351,-289.8305084745763 L299.9999999999999,-289.8305084745763" stroke="#E41A1C" stroke-width="4" stroke-linecap="round" />
<path d="M193.76823769520826,-255.50847457627117 L214.2859366250791,-255.50847457627117" stroke="#377EB8" stroke-width="4" stroke-linecap="round" />
<path d="M193.76823769520826,-228.81355932203388 L299.9999999999998,-228.81355932203388" stroke="#377EB8" stroke-width="4" stroke-linecap="round" />
<path d="M-95.8731491668376,-191.3135593220339 L149.55461719559798,-191.3135593220339" stroke="#E41A1C" stroke-width="4" stroke-linecap="round" />
<path d="M-95.8731491668376,-46.79555084745763 L-43.76279038076905,-46.79555084745763" stroke="#E41A1C" stroke-width="4" stroke-linecap="round" />
<path d="M-114.94622030738074,26.694915254237273 L52.367783302718806,26.694915254237273" stroke="#377EB8" stroke-width="4" stroke-linecap="round" />
<path d="M-114.94622030738074,270.0526350635593 L-71.98174682750141,270.0526350635593" stroke="#377EB8" stroke-width="4" stroke-linecap="round" />
<path d="M214.2859366250791,-266.9491525423729 L233.62089389219432,-266.9491525423729" stroke="#377EB8" stroke-width="4" stroke-linecap="round" />
<path d="M214.2859366250791,-244.0677966101695 L243.84638504108648,-244.0677966101695" stroke="#377EB8" stroke-width="4" stroke-linecap="round" />
<use xlink:href="#grad_5445721088" />
<path d="M149.55461719559798,-209.74576271186442 L255.28066120367305,-209.74576271186442" stroke="url(#grad_5445721088)" stroke-width="4" />
<use xlink:href="#grad_5445721328" />
<path d="M149.55461719559798,-172.8813559322034 L274.62070263093176,-172.8813559322034" stroke="url(#grad_5445721328)" stroke-width="4" />
<path d="M-43.76279038076905,-93.59110169491527 L25.268794704726133,-93.59110169491527" stroke="#E41A1C" stroke-width="4" stroke-linecap="round" />
<path d="M-43.76279038076905,0.0 L299.295065632357,0.0" stroke="#E41A1C" stroke-width="4" stroke-linecap="round" />
<path d="M52.367783302718806,15.254237288135585 L299.9999999999999,15.254237288135585" stroke="#377EB8" stroke-width="4" stroke-linecap="round" />
<use xlink:href="#grad_5445727232" />
<path d="M52.367783302718806,38.13559322033896 L230.5231877476582,38.13559322033896" stroke="url(#grad_5445727232)" stroke-width="4" />
<path d="M-71.98174682750141,245.1900158898305 L-11.722309398467871,245.1900158898305" stroke="#377EB8" stroke-width="4" stroke-linecap="round" />
<path d="M-71.98174682750141,294.91525423728814 L278.1274242710888,294.91525423728814" stroke="#377EB8" stroke-width="4" stroke-linecap="round" />
<path d="M233.62089389219432,-274.5762711864407 L251.39480647853418,-274.5762711864407" stroke="#377EB8" stroke-width="4" stroke-linecap="round" />
<path d="M233.62089389219432,-259.3220338983051 L299.9999999999999,-259.3220338983051" stroke="#377EB8" stroke-width="4" stroke-linecap="round" />
<path d="M243.84638504108648,-249.15254237288136 L299.9999999999999,-249.15254237288136" stroke="#377EB8" stroke-width="4" stroke-linecap="round" />
<path d="M243.84638504108648,-238.98305084745763 L299.9999999999999,-238.98305084745763" stroke="#377EB8" stroke-width="4" stroke-linecap="round" />
<path d="M255.28066120367305,-218.64406779661016 L299.9999999999999,-218.64406779661016" stroke="#377EB8" stroke-width="4" stroke-linecap="round" />
<path d="M255.28066120367305,-200.84745762711864 L276.36280566783546,-200.84745762711864" stroke="#377EB8" stroke-width="4" stroke-linecap="round" />
<use xlink:href="#grad_5445721520" />
<path d="M274.62070263093176,-177.96610169491527 L299.9998962416297,-177.96610169491527" stroke="url(#grad_5445721520)" stroke-width="4" />
<use xlink:href="#grad_5445721568" />
<path d="M274.62070263093176,-167.79661016949154 L299.9998962416297,-167.79661016949154" stroke="url(#grad_5445721568)" stroke-width="4" />
<path d="M25.268794704726133,-123.9406779661017 L187.15001004726878,-123.9406779661017" stroke="#E41A1C" stroke-width="4" stroke-linecap="round" />
<path d="M25.268794704726133,-63.241525423728824 L137.60186045675118,-63.241525423728824" stroke="#E41A1C" stroke-width="4" stroke-linecap="round" />
<path d="M299.295065632357,-5.0847457627118615 L299.9998962416296,-5.0847457627118615" stroke="#E41A1C" stroke-width="4" stroke-linecap="round" />
<path d="M299.295065632357,5.0847457627118615 L299.9998962416296,5.0847457627118615" stroke="#E41A1C" stroke-width="4" stroke-linecap="round" />
<path d="M230.5231877476582,30.50847457627117 L261.0439198805533,30.50847457627117" stroke="#E41A1C" stroke-width="4" stroke-linecap="round" />
<path d="M230.5231877476582,45.762711864406754 L299.9999999999999,45.762711864406754" stroke="#E41A1C" stroke-width="4" stroke-linecap="round" />
<path d="M-11.722309398467871,215.80376059322032 L108.00239889352065,215.80376059322032" stroke="#377EB8" stroke-width="4" stroke-linecap="round" />
<path d="M-11.722309398467871,274.5762711864407 L206.1328114056733,274.5762711864407" stroke="#377EB8" stroke-width="4" stroke-linecap="round" />
<path d="M278.1274242710888,289.8305084745763 L300.0,289.8305084745763" stroke="#377EB8" stroke-width="4" stroke-linecap="round" />
<path d="M278.1274242710888,300.0 L300.0,300.0" stroke="#377EB8" stroke-width="4" stroke-linecap="round" />
<path d="M251.39480647853418,-279.66101694915255 L299.9999999999999,-279.66101694915255" stroke="#377EB8" stroke-width="4" stroke-linecap="round" />
<path d="M251.39480647853418,-269.49152542372883 L299.9999999999999,-269.49152542372883" stroke="#377EB8" stroke-width="4" stroke-linecap="round" />
<use xlink:href="#grad_5445721280" />
<path d="M276.36280566783546,-208.47457627118644 L299.9999999999999,-208.47457627118644" stroke="url(#grad_5445721280)" stroke-width="4" />
<path d="M276.36280566783546,-193.22033898305085 L290.7557517587908,-193.22033898305085" stroke="#377EB8" stroke-width="4" stroke-linecap="round" />
<path d="M187.15001004726878,-141.10169491525426 L219.30794550472035,-141.10169491525426" stroke="#E41A1C" stroke-width="4" stroke-linecap="round" />
<path d="M187.15001004726878,-106.77966101694915 L299.9999999999999,-106.77966101694915" stroke="#E41A1C" stroke-width="4" stroke-linecap="round" />
<path d="M137.60186045675118,-81.35593220338984 L147.0664914764227,-81.35593220338984" stroke="#E41A1C" stroke-width="4" stroke-linecap="round" />
<path d="M137.60186045675118,-45.12711864406781 L222.27740630359756,-45.12711864406781" stroke="#E41A1C" stroke-width="4" stroke-linecap="round" />
<path d="M261.0439198805533,25.423728813559308 L299.9998962416296,25.423728813559308" stroke="#E41A1C" stroke-width="4" stroke-linecap="round" />
<path d="M261.0439198805533,35.59322033898303 L299.9998962416296,35.59322033898303" stroke="#E41A1C" stroke-width="4" stroke-linecap="round" />
<path d="M108.00239889352065,179.91260593220335 L142.05548098403045,179.91260593220335" stroke="#377EB8" stroke-width="4" stroke-linecap="round" />
<use xlink:href="#grad_5445724448" />
<path d="M108.00239889352065,251.6949152542373 L271.9624131845069,251.6949152542373" stroke="url(#grad_5445724448)" stroke-width="4" />
<use xlink:href="#grad_5445723968" />
<path d="M206.1328114056733,269.49152542372883 L299.9999999999998,269.49152542372883" stroke="url(#grad_5445723968)" stroke-width="4" />
<path d="M206.1328114056733,279.66101694915255 L299.9999999999998,279.66101694915255" stroke="#377EB8" stroke-width="4" stroke-linecap="round" />
<path d="M290.7557517587908,-198.3050847457627 L299.9999999999999,-198.3050847457627" stroke="#377EB8" stroke-width="4" stroke-linecap="round" />
<path d="M290.7557517587908,-188.135593220339 L299.9999999999999,-188.135593220339" stroke="#377EB8" stroke-width="4" stroke-linecap="round" />
<path d="M219.30794550472035,-152.54237288135593 L269.85321303357296,-152.54237288135593" stroke="#E41A1C" stroke-width="4" stroke-linecap="round" />
<path d="M219.30794550472035,-129.66101694915255 L228.22743004697134,-129.66101694915255" stroke="#E41A1C" stroke-width="4" stroke-linecap="round" />
<path d="M147.0664914764227,-91.52542372881356 L162.68648405424057,-91.52542372881356" stroke="#E41A1C" stroke-width="4" stroke-linecap="round" />
<path d="M147.0664914764227,-71.18644067796612 L280.7921467364705,-71.18644067796612" stroke="#E41A1C" stroke-width="4" stroke-linecap="round" />
<path d="M222.27740630359756,-55.93220338983053 L299.9999999999999,-55.93220338983053" stroke="#E41A1C" stroke-width="4" stroke-linecap="round" />
<path d="M222.27740630359756,-34.32203389830509 L274.03664676465826,-34.32203389830509" stroke="#E41A1C" stroke-width="4" stroke-linecap="round" />
<path d="M142.05548098403045,150.07944915254234 L177.1658608676343,150.07944915254234" stroke="#377EB8" stroke-width="4" stroke-linecap="round" />
<path d="M142.05548098403045,209.7457627118644 L159.4212081417117,209.7457627118644" stroke="#377EB8" stroke-width="4" stroke-linecap="round" />
<path d="M271.9624131845069,244.06779661016947 L279.68193217453666,244.06779661016947" stroke="#E41A1C" stroke-width="4" stroke-linecap="round" />
<use xlink:href="#grad_5445724064" />
<path d="M271.9624131845069,259.3220338983051 L299.9999999999999,259.3220338983051" stroke="url(#grad_5445724064)" stroke-width="4" />
<path d="M269.85321303357296,-157.6271186440678 L299.9999999999999,-157.6271186440678" stroke="#E41A1C" stroke-width="4" stroke-linecap="round" />
<path d="M269.85321303357296,-147.45762711864407 L299.9999999999999,-147.45762711864407" stroke="#E41A1C" stroke-width="4" stroke-linecap="round" />
<path d="M228.22743004697134,-137.28813559322035 L299.9998962416296,-137.28813559322035" stroke="#E41A1C" stroke-width="4" stroke-linecap="round" />
<path d="M228.22743004697134,-122.03389830508476 L235.2528055398668,-122.03389830508476" stroke="#E41A1C" stroke-width="4" stroke-linecap="round" />
<path d="M162.68648405424057,-96.61016949152543 L299.9999999999998,-96.61016949152543" stroke="#E41A1C" stroke-width="4" stroke-linecap="round" />
<use xlink:href="#grad_5445728048" />
<path d="M162.68648405424057,-86.4406779661017 L299.9999999999998,-86.4406779661017" stroke="url(#grad_5445728048)" stroke-width="4" />
<use xlink:href="#grad_5445727952" />
<path d="M280.7921467364705,-76.27118644067798 L299.9999999999998,-76.27118644067798" stroke="url(#grad_5445727952)" stroke-width="4" />
<path d="M280.7921467364705,-66.10169491525426 L299.9999999999998,-66.10169491525426" stroke="#E41A1C" stroke-width="4" stroke-linecap="round" />
<path d="M274.03664676465826,-45.76271186440678 L299.9999999999999,-45.76271186440678" stroke="#E41A1C" stroke-width="4" stroke-linecap="round" />
<path d="M274.03664676465826,-22.88135593220339 L297.0332369187498,-22.88135593220339" stroke="#E41A1C" stroke-width="4" stroke-linecap="round" />
<path d="M177.1658608676343,120.9216101694915 L188.06152733012755,120.9216101694915" stroke="#377EB8" stroke-width="4" stroke-linecap="round" />
<path d="M177.1658608676343,179.2372881355932 L232.21247777409235,179.2372881355932" stroke="#377EB8" stroke-width="4" stroke-linecap="round" />
<path d="M159.4212081417117,198.3050847457627 L299.9999999999998,198.3050847457627" stroke="#377EB8" stroke-width="4" stroke-linecap="round" />
<path d="M159.4212081417117,221.18644067796606 L255.14836928157342,221.18644067796606" stroke="#377EB8" stroke-width="4" stroke-linecap="round" />
<use xlink:href="#grad_5445724160" />
<path d="M279.68193217453666,238.98305084745755 L299.9999999999998,238.98305084745755" stroke="url(#grad_5445724160)" stroke-width="4" />
<path d="M279.68193217453666,249.15254237288138 L299.9999999999998,249.15254237288138" stroke="#E41A1C" stroke-width="4" stroke-linecap="round" />
<path d="M235.2528055398668,-127.11864406779662 L299.9998962416296,-127.11864406779662" stroke="#E41A1C" stroke-width="4" stroke-linecap="round" />
<path d="M235.2528055398668,-116.9491525423729 L299.9998962416296,-116.9491525423729" stroke="#E41A1C" stroke-width="4" stroke-linecap="round" />
<path d="M297.0332369187498,-30.508474576271198 L298.3173505092633,-30.508474576271198" stroke="#E41A1C" stroke-width="4" stroke-linecap="round" />
<path d="M297.0332369187498,-15.254237288135585 L299.9999999999999,-15.254237288135585" stroke="#E41A1C" stroke-width="4" stroke-linecap="round" />
<path d="M188.06152733012755,94.38559322033896 L197.1157939953647,94.38559322033896" stroke="#377EB8" stroke-width="4" stroke-linecap="round" />
<path d="M188.06152733012755,147.45762711864404 L299.9998962416296,147.45762711864404" stroke="#377EB8" stroke-width="4" stroke-linecap="round" />
<path d="M232.21247777409235,170.33898305084742 L244.1816283354425,170.33898305084742" stroke="#377EB8" stroke-width="4" stroke-linecap="round" />
<path d="M232.21247777409235,188.13559322033893 L299.9999999999999,188.13559322033893" stroke="#377EB8" stroke-width="4" stroke-linecap="round" />
<path d="M255.14836928157342,213.55932203389827 L295.75721648111767,213.55932203389827" stroke="#377EB8" stroke-width="4" stroke-linecap="round" />
<path d="M255.14836928157342,228.81355932203383 L299.9998962416295,228.81355932203383" stroke="#377EB8" stroke-width="4" stroke-linecap="round" />
<path d="M298.3173505092633,-35.59322033898309 L299.9999999999999,-35.59322033898309" stroke="#E41A1C" stroke-width="4" stroke-linecap="round" />
<path d="M298.3173505092633,-25.423728813559308 L299.9999999999999,-25.423728813559308" stroke="#E41A1C" stroke-width="4" stroke-linecap="round" />
<use xlink:href="#grad_5445726608" />
<path d="M197.1157939953647,77.54237288135592 L253.31651525438258,77.54237288135592" stroke="url(#grad_5445726608)" stroke-width="4" />
<path d="M197.1157939953647,111.22881355932202 L213.16700636004214,111.22881355932202" stroke="#377EB8" stroke-width="4" stroke-linecap="round" />
<path d="M244.1816283354425,162.71186440677963 L287.36835224444906,162.71186440677963" stroke="#377EB8" stroke-width="4" stroke-linecap="round" />
<path d="M244.1816283354425,177.9661016949152 L299.9999999999999,177.9661016949152" stroke="#377EB8" stroke-width="4" stroke-linecap="round" />
<path d="M295.75721648111767,208.47457627118644 L299.9998962416295,208.47457627118644" stroke="#377EB8" stroke-width="4" stroke-linecap="round" />
<path d="M295.75721648111767,218.6440677966101 L299.9998962416295,218.6440677966101" stroke="#377EB8" stroke-width="4" stroke-linecap="round" />
<path d="M253.31651525438258,68.64406779661013 L263.4787137974075,68.64406779661013" stroke="#E41A1C" stroke-width="4" stroke-linecap="round" />
<use xlink:href="#grad_5445725456" />
<path d="M253.31651525438258,86.4406779661017 L299.9998962416296,86.4406779661017" stroke="url(#grad_5445725456)" stroke-width="4" />
<path d="M213.16700636004214,96.61016949152543 L299.9998962416296,96.61016949152543" stroke="#377EB8" stroke-width="4" stroke-linecap="round" />
<path d="M213.16700636004214,125.84745762711863 L226.29700556801993,125.84745762711863" stroke="#377EB8" stroke-width="4" stroke-linecap="round" />
<path d="M287.36835224444906,157.62711864406776 L299.9999999999999,157.62711864406776" stroke="#377EB8" stroke-width="4" stroke-linecap="round" />
<path d="M287.36835224444906,167.7966101694915 L299.9999999999999,167.7966101694915" stroke="#377EB8" stroke-width="4" stroke-linecap="round" />
<path d="M263.4787137974075,61.01694915254234 L289.41291093070197,61.01694915254234" stroke="#E41A1C" stroke-width="4" stroke-linecap="round" />
<path d="M263.4787137974075,76.27118644067792 L299.9998962416295,76.27118644067792" stroke="#E41A1C" stroke-width="4" stroke-linecap="round" />
<path d="M226.29700556801993,114.40677966101694 L237.80847795809052,114.40677966101694" stroke="#377EB8" stroke-width="4" stroke-linecap="round" />
<path d="M226.29700556801993,137.28813559322032 L299.9998962416296,137.28813559322032" stroke="#377EB8" stroke-width="4" stroke-linecap="round" />
<path d="M289.41291093070197,55.93220338983048 L299.9998962416295,55.93220338983048" stroke="#E41A1C" stroke-width="4" stroke-linecap="round" />
<path d="M289.41291093070197,66.1016949152542 L299.9998962416295,66.1016949152542" stroke="#E41A1C" stroke-width="4" stroke-linecap="round" />
<path d="M237.80847795809052,106.77966101694915 L299.9999999999999,106.77966101694915" stroke="#377EB8" stroke-width="4" stroke-linecap="round" />
<path d="M237.80847795809052,122.03389830508473 L290.38471182669025,122.03389830508473" stroke="#377EB8" stroke-width="4" stroke-linecap="round" />
<path d="M290.38471182669025,116.94915254237287 L299.9999999999999,116.94915254237287" stroke="#377EB8" stroke-width="4" stroke-linecap="round" />
<path d="M290.38471182669025,127.1186440677966 L299.9999999999999,127.1186440677966" stroke="#377EB8" stroke-width="4" stroke-linecap="round" />
<path d="M280.0672907617351,-300.0 L280.0672907617351,-289.8305084745763" stroke="#E41A1C" stroke-width="4" stroke-linecap="round" />
<circle cx="280.0672907617351" cy="-294.91525423728814" r="0" fill="#E41A1C" />
<path d="M251.39480647853418,-279.66101694915255 L251.39480647853418,-269.49152542372883" stroke="#377EB8" stroke-width="4" stroke-linecap="round" />
<circle cx="251.39480647853418" cy="-274.5762711864407" r="0" fill="#377EB8" />
<path d="M233.62089389219432,-274.5762711864407 L233.62089389219432,-259.3220338983051" stroke="#377EB8" stroke-width="4" stroke-linecap="round" />
<circle cx="233.62089389219432" cy="-266.9491525423729" r="0" fill="#377EB8" />
<path d="M243.84638504108648,-249.15254237288136 L243.84638504108648,-238.98305084745763" stroke="#377EB8" stroke-width="4" stroke-linecap="round" />
<circle cx="243.84638504108648" cy="-244.0677966101695" r="0" fill="#377EB8" />
<path d="M214.2859366250791,-266.9491525423729 L214.2859366250791,-244.0677966101695" stroke="#377EB8" stroke-width="4" stroke-linecap="round" />
<circle cx="214.2859366250791" cy="-255.50847457627117" r="0" fill="#377EB8" />
<path d="M193.76823769520826,-255.50847457627117 L193.76823769520826,-228.81355932203388" stroke="#377EB8" stroke-width="4" stroke-linecap="round" />
<circle cx="193.76823769520826" cy="-242.16101694915253" r="0" fill="#377EB8" />
<path d="M58.14836962743476,-294.91525423728814 L58.14836962743476,-242.16101694915253" stroke="#377EB8" stroke-width="4" stroke-linecap="round" />
<circle cx="58.14836962743476" cy="-268.5381355932203" r="0" fill="#377EB8" />
<path d="M290.7557517587908,-198.3050847457627 L290.7557517587908,-188.135593220339" stroke="#377EB8" stroke-width="4" stroke-linecap="round" />
<circle cx="290.7557517587908" cy="-193.22033898305085" r="0" fill="#377EB8" />
<path d="M276.36280566783546,-208.47457627118644 L276.36280566783546,-193.22033898305085" stroke="#377EB8" stroke-width="4" stroke-linecap="round" />
<circle cx="276.36280566783546" cy="-200.84745762711864" r="0" fill="#377EB8" />
<path d="M255.28066120367305,-218.64406779661016 L255.28066120367305,-200.84745762711864" stroke="#377EB8" stroke-width="4" stroke-linecap="round" />
<circle cx="255.28066120367305" cy="-209.74576271186442" r="0" fill="#377EB8" />
<path d="M274.62070263093176,-177.96610169491527 L274.62070263093176,-167.79661016949154" stroke="#377EB8" stroke-width="4" stroke-linecap="round" />
<circle cx="274.62070263093176" cy="-172.8813559322034" r="0" fill="#377EB8" />
<path d="M149.55461719559798,-209.74576271186442 L149.55461719559798,-172.8813559322034" stroke="#E41A1C" stroke-width="4" stroke-linecap="round" />
<circle cx="149.55461719559798" cy="-191.3135593220339" r="0" fill="#E41A1C" />
<path d="M269.85321303357296,-157.6271186440678 L269.85321303357296,-147.45762711864407" stroke="#E41A1C" stroke-width="4" stroke-linecap="round" />
<circle cx="269.85321303357296" cy="-152.54237288135593" r="0" fill="#E41A1C" />
<path d="M235.2528055398668,-127.11864406779662 L235.2528055398668,-116.9491525423729" stroke="#E41A1C" stroke-width="4" stroke-linecap="round" />
<circle cx="235.2528055398668" cy="-122.03389830508476" r="0" fill="#E41A1C" />
<path d="M228.22743004697134,-137.28813559322035 L228.22743004697134,-122.03389830508476" stroke="#E41A1C" stroke-width="4" stroke-linecap="round" />
<circle cx="228.22743004697134" cy="-129.66101694915255" r="0" fill="#E41A1C" />
<path d="M219.30794550472035,-152.54237288135593 L219.30794550472035,-129.66101694915255" stroke="#E41A1C" stroke-width="4" stroke-linecap="round" />
<circle cx="219.30794550472035" cy="-141.10169491525426" r="0" fill="#E41A1C" />
<path d="M187.15001004726878,-141.10169491525426 L187.15001004726878,-106.77966101694915" stroke="#E41A1C" stroke-width="4" stroke-linecap="round" />
<circle cx="187.15001004726878" cy="-123.9406779661017" r="0" fill="#E41A1C" />
<path d="M162.68648405424057,-96.61016949152543 L162.68648405424057,-86.4406779661017" stroke="#E41A1C" stroke-width="4" stroke-linecap="round" />
<circle cx="162.68648405424057" cy="-91.52542372881356" r="0" fill="#E41A1C" />
<path d="M280.7921467364705,-76.27118644067798 L280.7921467364705,-66.10169491525426" stroke="#E41A1C" stroke-width="4" stroke-linecap="round" />
<circle cx="280.7921467364705" cy="-71.18644067796612" r="0" fill="#E41A1C" />
<path d="M147.0664914764227,-91.52542372881356 L147.0664914764227,-71.18644067796612" stroke="#E41A1C" stroke-width="4" stroke-linecap="round" />
<circle cx="147.0664914764227" cy="-81.35593220338984" r="0" fill="#E41A1C" />
<path d="M298.3173505092633,-35.59322033898309 L298.3173505092633,-25.423728813559308" stroke="#E41A1C" stroke-width="4" stroke-linecap="round" />
<circle cx="298.3173505092633" cy="-30.508474576271198" r="0" fill="#E41A1C" />
<path d="M297.0332369187498,-30.508474576271198 L297.0332369187498,-15.254237288135585" stroke="#E41A1C" stroke-width="4" stroke-linecap="round" />
<circle cx="297.0332369187498" cy="-22.88135593220339" r="0" fill="#E41A1C" />
<path d="M274.03664676465826,-45.76271186440678 L274.03664676465826,-22.88135593220339" stroke="#E41A1C" stroke-width="4" stroke-linecap="round" />
<circle cx="274.03664676465826" cy="-34.32203389830509" r="0" fill="#E41A1C" />
<path d="M222.27740630359756,-55.93220338983053 L222.27740630359756,-34.32203389830509" stroke="#E41A1C" stroke-width="4" stroke-linecap="round" />
<circle cx="222.27740630359756" cy="-45.12711864406781" r="0" fill="#E41A1C" />
<path d="M137.60186045675118,-81.35593220338984 L137.60186045675118,-45.12711864406781" stroke="#E41A1C" stroke-width="4" stroke-linecap="round" />
<circle cx="137.60186045675118" cy="-63.241525423728824" r="0" fill="#E41A1C" />
<path d="M25.268794704726133,-123.9406779661017 L25.268794704726133,-63.241525423728824" stroke="#E41A1C" stroke-width="4" stroke-linecap="round" />
<circle cx="25.268794704726133" cy="-93.59110169491527" r="0" fill="#E41A1C" />
<path d="M299.295065632357,-5.0847457627118615 L299.295065632357,5.0847457627118615" stroke="#E41A1C" stroke-width="4" stroke-linecap="round" />
<circle cx="299.295065632357" cy="0.0" r="0" fill="#E41A1C" />
<path d="M-43.76279038076905,-93.59110169491527 L-43.76279038076905,0.0" stroke="#E41A1C" stroke-width="4" stroke-linecap="round" />
<circle cx="-43.76279038076905" cy="-46.79555084745763" r="0" fill="#E41A1C" />
<path d="M-95.8731491668376,-191.3135593220339 L-95.8731491668376,-46.79555084745763" stroke="#E41A1C" stroke-width="4" stroke-linecap="round" />
<circle cx="-95.8731491668376" cy="-119.05455508474577" r="0" fill="#E41A1C" />
<path d="M261.0439198805533,25.423728813559308 L261.0439198805533,35.59322033898303" stroke="#E41A1C" stroke-width="4" stroke-linecap="round" />
<circle cx="261.0439198805533" cy="30.50847457627117" r="0" fill="#E41A1C" />
<path d="M230.5231877476582,30.50847457627117 L230.5231877476582,45.762711864406754" stroke="#E41A1C" stroke-width="4" stroke-linecap="round" />
<circle cx="230.5231877476582" cy="38.13559322033896" r="0" fill="#E41A1C" />
<path d="M52.367783302718806,15.254237288135585 L52.367783302718806,38.13559322033896" stroke="#377EB8" stroke-width="4" stroke-linecap="round" />
<circle cx="52.367783302718806" cy="26.694915254237273" r="0" fill="#377EB8" />
<path d="M289.41291093070197,55.93220338983048 L289.41291093070197,66.1016949152542" stroke="#E41A1C" stroke-width="4" stroke-linecap="round" />
<circle cx="289.41291093070197" cy="61.01694915254234" r="0" fill="#E41A1C" />
<path d="M263.4787137974075,61.01694915254234 L263.4787137974075,76.27118644067792" stroke="#E41A1C" stroke-width="4" stroke-linecap="round" />
<circle cx="263.4787137974075" cy="68.64406779661013" r="0" fill="#E41A1C" />
<path d="M253.31651525438258,68.64406779661013 L253.31651525438258,86.4406779661017" stroke="#E41A1C" stroke-width="4" stroke-linecap="round" />
<circle cx="253.31651525438258" cy="77.54237288135592" r="0" fill="#E41A1C" />
<path d="M290.38471182669025,116.94915254237287 L290.38471182669025,127.1186440677966" stroke="#377EB8" stroke-width="4" stroke-linecap="round" />
<circle cx="290.38471182669025" cy="122.03389830508473" r="0" fill="#377EB8" />
<path d="M237.80847795809052,106.77966101694915 L237.80847795809052,122.03389830508473" stroke="#377EB8" stroke-width="4" stroke-linecap="round" />
<circle cx="237.80847795809052" cy="114.40677966101694" r="0" fill="#377EB8" />
<path d="M226.29700556801993,114.40677966101694 L226.29700556801993,137.28813559322032" stroke="#377EB8" stroke-width="4" stroke-linecap="round" />
<circle cx="226.29700556801993" cy="125.84745762711863" r="0" fill="#377EB8" />
<path d="M213.16700636004214,96.61016949152543 L213.16700636004214,125.84745762711863" stroke="#377EB8" stroke-width="4" stroke-linecap="round" />
<circle cx="213.16700636004214" cy="111.22881355932202" r="0" fill="#377EB8" />
<path d="M197.1157939953647,77.54237288135592 L197.1157939953647,111.22881355932202" stroke="#377EB8" stroke-width="4" stroke-linecap="round" />
<circle cx="197.1157939953647" cy="94.38559322033896" r="0" fill="#377EB8" />
<path d="M188.06152733012755,94.38559322033896 L188.06152733012755,147.45762711864404" stroke="#377EB8" stroke-width="4" stroke-linecap="round" />
<circle cx="188.06152733012755" cy="120.9216101694915" r="0" fill="#377EB8" />
<path d="M287.36835224444906,157.62711864406776 L287.36835224444906,167.7966101694915" stroke="#377EB8" stroke-width="4" stroke-linecap="round" />
<circle cx="287.36835224444906" cy="162.71186440677963" r="0" fill="#377EB8" />
<path d="M244.1816283354425,162.71186440677963 L244.1816283354425,177.9661016949152" stroke="#377EB8" stroke-width="4" stroke-linecap="round" />
<circle cx="244.1816283354425" cy="170.33898305084742" r="0" fill="#377EB8" />
<path d="M232.21247777409235,170.33898305084742 L232.21247777409235,188.13559322033893" stroke="#377EB8" stroke-width="4" stroke-linecap="round" />
<circle cx="232.21247777409235" cy="179.2372881355932" r="0" fill="#377EB8" />
<path d="M177.1658608676343,120.9216101694915 L177.1658608676343,179.2372881355932" stroke="#377EB8" stroke-width="4" stroke-linecap="round" />
<circle cx="177.1658608676343" cy="150.07944915254234" r="0" fill="#377EB8" />
<path d="M295.75721648111767,208.47457627118644 L295.75721648111767,218.6440677966101" stroke="#377EB8" stroke-width="4" stroke-linecap="round" />
<circle cx="295.75721648111767" cy="213.55932203389827" r="0" fill="#377EB8" />
<path d="M255.14836928157342,213.55932203389827 L255.14836928157342,228.81355932203383" stroke="#377EB8" stroke-width="4" stroke-linecap="round" />
<circle cx="255.14836928157342" cy="221.18644067796606" r="0" fill="#377EB8" />
<path d="M159.4212081417117,198.3050847457627 L159.4212081417117,221.18644067796606" stroke="#377EB8" stroke-width="4" stroke-linecap="round" />
<circle cx="159.4212081417117" cy="209.7457627118644" r="0" fill="#377EB8" />
<path d="M142.05548098403045,150.07944915254234 L142.05548098403045,209.7457627118644" stroke="#377EB8" stroke-width="4" stroke-linecap="round" />
<circle cx="142.05548098403045" cy="179.91260593220335" r="0" fill="#377EB8" />
<path d="M279.68193217453666,238.98305084745755 L279.68193217453666,249.15254237288138" stroke="#E41A1C" stroke-width="4" stroke-linecap="round" />
<circle cx="279.68193217453666" cy="244.06779661016947" r="0" fill="#E41A1C" />
<path d="M271.9624131845069,244.06779661016947 L271.9624131845069,259.3220338983051" stroke="#E41A1C" stroke-width="4" stroke-linecap="round" />
<circle cx="271.9624131845069" cy="251.6949152542373" r="0" fill="#E41A1C" />
<path d="M108.00239889352065,179.91260593220335 L108.00239889352065,251.6949152542373" stroke="#377EB8" stroke-width="4" stroke-linecap="round" />
<circle cx="108.00239889352065" cy="215.80376059322032" r="0" fill="#377EB8" />
<path d="M206.1328114056733,269.49152542372883 L206.1328114056733,279.66101694915255" stroke="#377EB8" stroke-width="4" stroke-linecap="round" />
<circle cx="206.1328114056733" cy="274.5762711864407" r="0" fill="#377EB8" />
<path d="M-11.722309398467871,215.80376059322032 L-11.722309398467871,274.5762711864407" stroke="#377EB8" stroke-width="4" stroke-linecap="round" />
<circle cx="-11.722309398467871" cy="245.1900158898305" r="0" fill="#377EB8" />
<path d="M278.1274242710888,289.8305084745763 L278.1274242710888,300.0" stroke="#377EB8" stroke-width="4" stroke-linecap="round" />
<circle cx="278.1274242710888" cy="294.91525423728814" r="0" fill="#377EB8" />
<path d="M-71.98174682750141,245.1900158898305 L-71.98174682750141,294.91525423728814" stroke="#377EB8" stroke-width="4" stroke-linecap="round" />
<circle cx="-71.98174682750141" cy="270.0526350635593" r="0" fill="#377EB8" />
<path d="M-114.94622030738074,26.694915254237273 L-114.94622030738074,270.0526350635593" stroke="#377EB8" stroke-width="4" stroke-linecap="round" />
<circle cx="-114.94622030738074" cy="148.3737751588983" r="0" fill="#377EB8" />
<path d="M-267.5698025789489,-119.05455508474577 L-267.5698025789489,148.3737751588983" stroke="#E41A1C" stroke-width="4" stroke-linecap="round" />
<circle cx="-267.5698025789489" cy="14.659610037076263" r="0" fill="#E41A1C" />
<path d="M-278.09318400889833,-268.5381355932203 L-278.09318400889833,14.659610037076263" stroke="#E41A1C" stroke-width="4" stroke-linecap="round" />
<circle cx="-278.09318400889833" cy="-126.93926277807202" r="0" fill="#E41A1C" />
</svg>