<?xml version="1.0" encoding="UTF-8"?>
<svg xmlns="http://www.w3.org/2000/svg" xmlns:xlink="http://www.w3.org/1999/xlink"
     width="1000" height="1000" viewBox="-500.0 -500.0 1000 1000" displayInline="True">
<defs>
</defs>
<rect x="-500.0" y="-500.0" width="1000" height="1000" fill="white" />
<circle cx="1.22464547064863e-14" cy="-199.9997830396937" r="0" fill="black" />
<path d="M1.0468959570105658e-14,-170.9710845183208 L1.22464547064863e-14,-199.9997830396937" stroke="black" stroke-width="3" fill="none" />
<circle cx="20.905669975003285" cy="-198.90416330187963" r="0" fill="black" />
<path d="M17.87134472790417,-170.03448702832964 L20.905669975003285,-198.90416330187963" stroke="black" stroke-width="3" fill="none" />
<path d="M1.056080808004171e-14,-172.4710845183208 A172.4710845183208,172.4710845183208,0,0,1,18.02813742280565,-171.52626987138206" stroke="black" stroke-width="3" fill="none" />
<circle cx="9.026439132523928" cy="-172.23471889114748" r="0" fill="black" />
<path d="M8.547391715219492,-163.09394964165838 L9.026439132523928,-172.23471889114748" stroke="black" stroke-width="3" fill="none" />
<circle cx="41.58228499986346" cy="-195.6292700312718" r="0" fill="black" />
<path d="M37.46889153668521,-176.27727529227155 L41.58228499986346,-195.6292700312718" stroke="black" stroke-width="3" fill="none" />
<circle cx="61.803319858349575" cy="-190.21106007081886" r="0" fill="black" />
<path d="M55.68962572372266,-171.39504428135274 L61.803319858349575,-190.21106007081886" stroke="black" stroke-width="3" fill="none" />
<path d="M37.78075907291185,-177.74449669337227 A181.71541448348745,181.71541448348745,0,0,1,56.153151215285085,-172.82162905579546" stroke="black" stroke-width="3" fill="none" />
<circle cx="47.03141005702499" cy="-175.52361188442313" r="0" fill="black" />
<path d="M42.26974953091762,-157.7528528725953 L47.03141005702499,-175.52361188442313" stroke="black" stroke-width="3" fill="none" />
<path d="M8.625895649583908,-164.59189394379024 A164.81777097073424,164.81777097073424,0,0,1,42.6579780985714,-159.20174161202888" stroke="black" stroke-width="3" fill="none" />
<circle cx="25.783179830930113" cy="-162.788590710674" r="0" fill="black" />
<path d="M-0.23465169756034637,1.4815325108927067 L25.783179830930113,-162.788590710674" stroke="black" stroke-width="3" fill="none" />
<circle cx="81.3472340661886" cy="-182.70887916805341" r="0" fill="black" />
<path d="M57.40940806114,-128.94364167339359 L81.3472340661886,-182.70887916805341" stroke="black" stroke-width="3" fill="none" />
<circle cx="99.9998837712645" cy="-173.20487944281248" r="0" fill="black" />
<path d="M94.55358422687726,-163.7716119186946 L99.9998837712645,-173.20487944281248" stroke="black" stroke-width="3" fill="none" />
<circle cx="117.55691382342137" cy="-161.80321081294494" r="0" fill="black" />
<path d="M111.1544047199053,-152.99091303721335 L117.55691382342137,-161.80321081294494" stroke="black" stroke-width="3" fill="none" />
<path d="M95.30358422687726,-165.07065002437125 A190.6071684537545,190.6071684537545,0,0,1,112.03608259834401,-154.20443852877577" stroke="black" stroke-width="3" fill="none" />
<circle cx="103.81210429359956" cy="-159.85662222157939" r="0" fill="black" />
<path d="M76.87383258797304,-118.3753214363674 L103.81210429359956,-159.85662222157939" stroke="black" stroke-width="3" fill="none" />
<path d="M58.0195130257537,-130.31395985985748 A142.64638805838075,142.64638805838075,0,0,1,77.69079114049558,-119.63332728828554" stroke="black" stroke-width="3" fill="none" />
<circle cx="68.06497368144797" cy="-125.36008688512443" r="0" fill="black" />
<path d="M12.169192374337701,-22.412864221595548 L68.06497368144797,-125.36008688512443" stroke="black" stroke-width="3" fill="none" />
<circle cx="133.82601757549932" cy="-148.62884992910105" r="0" fill="black" />
<path d="M122.19044655677982,-135.70623913852734 L133.82601757549932,-148.62884992910105" stroke="black" stroke-width="3" fill="none" />
<circle cx="148.6288096208688" cy="-133.825981281804" r="0" fill="black" />
<path d="M142.8118319009666,-128.58835101721363 L148.6288096208688,-133.825981281804" stroke="black" stroke-width="3" fill="none" />
<circle cx="161.80322961914942" cy="-117.55692748692871" r="0" fill="black" />
<path d="M155.4706364691155,-112.95602925087364 L161.80322961914942,-117.55692748692871" stroke="black" stroke-width="3" fill="none" />
<path d="M143.92654913918273,-129.59204692675192 A193.67227518098466,193.67227518098466,0,0,1,156.68416196067793,-113.83770712931235" stroke="black" stroke-width="3" fill="none" />
<circle cx="150.51162650308535" cy="-121.88191195240898" r="0" fill="black" />
<path d="M141.9152123185019,-114.92067300300221 L150.51162650308535,-121.88191195240898" stroke="black" stroke-width="3" fill="none" />
<path d="M123.19414246631811,-136.82095637674342 A184.11075699659216,184.11075699659216,0,0,1,143.08093126068735,-115.86465358957696" stroke="black" stroke-width="3" fill="none" />
<circle cx="133.5492245529992" cy="-126.73348201304503" r="0" fill="black" />
<path d="M74.61483457441126,-70.80683416240859 L133.5492245529992,-126.73348201304503" stroke="black" stroke-width="3" fill="none" />
<circle cx="173.20508075688775" cy="-99.99999999999999" r="0" fill="black" />
<path d="M89.08274792013431,-51.431948491841105 L173.20508075688775,-99.99999999999999" stroke="black" stroke-width="3" fill="none" />
<path d="M75.70289613092969,-71.83936602594922 A104.36389698368222,104.36389698368222,0,0,1,90.38178602581097,-52.181948491841105" stroke="black" stroke-width="3" fill="none" />
<circle cx="83.62197036547246" cy="-62.44348697675907" r="0" fill="black" />
<path d="M80.51933252272539,-60.126637411023744 L83.62197036547246,-62.44348697675907" stroke="black" stroke-width="3" fill="none" />
<circle cx="182.70880130254892" cy="-81.34719939823242" r="0" fill="black" />
<path d="M164.10982002164005,-73.06639941445529 L182.70880130254892,-81.34719939823242" stroke="black" stroke-width="3" fill="none" />
<circle cx="190.21098637742136" cy="-61.80329591391323" r="0" fill="black" />
<path d="M176.0166520140144,-57.19127710432674 L190.21098637742136,-61.80329591391323" stroke="black" stroke-width="3" fill="none" />
<circle cx="195.62919423869934" cy="-41.58226888965483" r="0" fill="black" />
<path d="M181.03053068538523,-38.47922715978492 L195.62919423869934,-41.58226888965483" stroke="black" stroke-width="3" fill="none" />
<path d="M177.44323678845714,-57.65480259588916 A186.57486042962867,186.57486042962867,0,0,1,182.49775208648595,-38.791094696011555" stroke="black" stroke-width="3" fill="none" />
<circle cx="180.21747622525666" cy="-48.28912721653258" r="0" fill="black" />
<path d="M173.51945891735653,-46.494398887991046 L180.21747622525666,-48.28912721653258" stroke="black" stroke-width="3" fill="none" />
<path d="M165.48013820810394,-73.67650437906899 A181.14056265478519,181.14056265478519,0,0,1,174.96834765679014,-46.88262745564483" stroke="black" stroke-width="3" fill="none" />
<circle cx="170.7506100781829" cy="-60.46596229963194" r="0" fill="black" />
<path d="M119.87494309152376,-42.44994372976905 L170.7506100781829,-60.46596229963194" stroke="black" stroke-width="3" fill="none" />
<circle cx="198.90406312212693" cy="-20.90565944568699" r="0" fill="black" />
<path d="M126.47253143123962,-13.29279869819467 L198.90406312212693,-20.90565944568699" stroke="black" stroke-width="3" fill="none" />
<path d="M121.28890532816203,-42.95065401861971 A128.6691774914685,128.6691774914685,0,0,1,127.96431427429202,-13.44959139309615" stroke="black" stroke-width="3" fill="none" />
<circle cx="125.49649415245058" cy="-28.396957438693363" r="0" fill="black" />
<path d="M105.88175282250754,-23.95859461047968 L125.49649415245058,-28.396957438693363" stroke="black" stroke-width="3" fill="none" />
<circle cx="199.9996823081229" cy="0.0" r="0" fill="black" />
<path d="M148.65157970542447,0.0 L199.9996823081229,0.0" stroke="black" stroke-width="3" fill="none" />
<circle cx="198.90406312212693" cy="20.90565944568699" r="0" fill="black" />
<path d="M147.8372507981267,15.538321188917124 L198.90406312212693,20.90565944568699" stroke="black" stroke-width="3" fill="none" />
<path d="M150.15157970542447,0.0 A150.15157970542447,150.15157970542447,0,0,1,149.3290336411791,15.695113883818603" stroke="black" stroke-width="3" fill="none" />
<circle cx="149.94580218389234" cy="7.858326505271989" r="0" fill="black" />
<path d="M108.40977914811667,5.681515777717741 L149.94580218389234,7.858326505271989" stroke="black" stroke-width="3" fill="none" />
<path d="M107.3447663032703,-24.28964076301193 A110.05855487466609,110.05855487466609,0,0,1,109.90772345024853,5.7600197120821575" stroke="black" stroke-width="3" fill="none" />
<circle cx="109.66041491665445" cy="-9.353015631713475" r="0" fill="black" />
<path d="M103.39515021307888,-8.818646700555389 L109.66041491665445,-9.353015631713475" stroke="black" stroke-width="3" fill="none" />
<circle cx="195.62882285509392" cy="41.58218994963261" r="0" fill="black" />
<path d="M101.50290776927773,21.57510907494705 L195.62882285509392,41.58218994963261" stroke="black" stroke-width="3" fill="none" />
<path d="M104.88972392034137,-8.946119966614052 A105.27054310937359,105.27054310937359,0,0,1,102.97012917037844,21.886976611173687" stroke="black" stroke-width="3" fill="none" />
<circle cx="105.06711946592854" cy="6.5412272300220655" r="0" fill="black" />
<path d="M100.29747949325683,6.244280868256058 L105.06711946592854,6.5412272300220655" stroke="black" stroke-width="3" fill="none" />
<path d="M81.72121324176199,-61.02412431187973 A101.99166849178067,101.99166849178067,0,0,1,101.79458090970103,6.3374868169974725" stroke="black" stroke-width="3" fill="none" />
<circle cx="97.74409618606157" cy="-29.127171206748365" r="0" fill="black" />
<path d="M24.44132206118801,-7.28337157919332 L97.74409618606157,-29.127171206748365" stroke="black" stroke-width="3" fill="none" />
<path d="M12.884930514727113,-23.731089890588496 A27.003445368406926,27.003445368406926,0,0,1,25.87885265998303,-7.711747322586943" stroke="black" stroke-width="3" fill="none" />
<circle cx="20.97170845643559" cy="-17.010981928824847" r="0" fill="black" />
<path d="M17.215304082896008,-13.964013817076593 L20.97170845643559,-17.010981928824847" stroke="black" stroke-width="3" fill="none" />
<circle cx="190.21120745761394" cy="61.80336774722224" r="0" fill="black" />
<path d="M161.34090666961535,52.4228383850331 L190.21120745761394,61.80336774722224" stroke="black" stroke-width="3" fill="none" />
<circle cx="182.70899950565126" cy="81.3472876439391" r="0" fill="black" />
<path d="M154.97738556498547,69.0003776276526 L182.70899950565126,81.3472876439391" stroke="black" stroke-width="3" fill="none" />
<path d="M162.76749144405807,52.886363876595524 A171.14386858745243,171.14386858745243,0,0,1,156.3477037514494,69.6104825922663" stroke="black" stroke-width="3" fill="none" />
<circle cx="159.7765658282549" cy="61.332477262935654" r="0" fill="black" />
<path d="M20.694350652145374,7.943816943770311 L159.7765658282549,61.332477262935654" stroke="black" stroke-width="3" fill="none" />
<path d="M18.38025034273356,-14.908947789209298 A23.666650097614703,23.666650097614703,0,0,1,22.094721291891176,8.48136886808826" stroke="black" stroke-width="3" fill="none" />
<circle cx="23.37375794642535" cy="-3.711841363103203" r="0" fill="black" />
<path d="M-1.4814363999563964,0.23525771588670946 L23.37375794642535,-3.711841363103203" stroke="black" stroke-width="3" fill="none" />
<path d="M-17.00918577895675,-324.5545987952365 A325,325,0,0,1,17.009185778956788,-324.5545987952365 L16.22414643531263,-309.5751557739179 A310,310,0,0,0,-16.22414643531259,-309.5751557739179 Z" fill="blue" fill-opacity="1.0" stroke="none" />
<path d="M17.009185778956788,-324.5545987952365 A325,325,0,0,1,50.84120113807505,-320.99871069341975 L48.494684162471586,-306.1833855844927 A310,310,0,0,0,16.22414643531263,-309.5751557739179 Z" fill="#eee" fill-opacity="1.0" stroke="none" />
<path d="M50.84120113807505,-320.99871069341975 A325,325,0,0,1,84.11618965831924,-313.9258935439472 L80.23390398178142,-299.4370061496112 A310,310,0,0,0,48.494684162471586,-306.1833855844927 Z" fill="#eee" fill-opacity="1.0" stroke="none" />
<path d="M84.11618965831924,-313.9258935439472 A325,325,0,0,1,116.46958360222263,-303.41363861159056 L111.09406435904312,-289.40993221413254 A310,310,0,0,0,80.23390398178142,-299.4370061496112 Z" fill="blue" fill-opacity="1.0" stroke="none" />
<path d="M116.46958360222263,-303.41363861159056 A325,325,0,0,1,147.54691241535272,-289.57712036121956 L140.73705491925952,-276.21202249839405 A310,310,0,0,0,111.09406435904312,-289.40993221413254 Z" fill="blue" fill-opacity="1.0" stroke="none" />
<path d="M147.54691241535272,-289.57712036121956 A325,325,0,0,1,177.0076863798838,-272.5679345822628 L168.8381008546584,-259.98787606308144 A310,310,0,0,0,140.73705491925952,-276.21202249839405 Z" fill="blue" fill-opacity="1.0" stroke="none" />
<path d="M177.0076863798838,-272.5679345822628 A325,325,0,0,1,204.52912709119715,-252.57243747351555 L195.0893212254496,-240.91524805166097 A310,310,0,0,0,168.8381008546584,-259.98787606308144 Z" fill="blue" fill-opacity="1.0" stroke="none" />
<path d="M204.52912709119715,-252.57243747351555 A325,325,0,0,1,229.80970388562795,-229.80970388562793 L219.20310216782974,-219.2031021678297 A310,310,0,0,0,195.0893212254496,-240.91524805166097 Z" fill="#eee" fill-opacity="1.0" stroke="none" />
<path d="M229.80970388562795,-229.80970388562793 A325,325,0,0,1,252.57243747351555,-204.52912709119715 L240.91524805166097,-195.0893212254496 A310,310,0,0,0,219.20310216782974,-219.2031021678297 Z" fill="#eee" fill-opacity="1.0" stroke="none" />
<path d="M252.57243747351555,-204.52912709119715 A325,325,0,0,1,272.5679345822628,-177.0076863798838 L259.98787606308144,-168.8381008546584 A310,310,0,0,0,240.91524805166097,-195.0893212254496 Z" fill="blue" fill-opacity="1.0" stroke="none" />
<path d="M272.5679345822628,-177.0076863798838 A325,325,0,0,1,289.57712036121956,-147.54691241535272 L276.21202249839405,-140.73705491925952 A310,310,0,0,0,259.98787606308144,-168.8381008546584 Z" fill="blue" fill-opacity="1.0" stroke="none" />
<path d="M289.57712036121956,-147.54691241535272 A325,325,0,0,1,303.41363861159056,-116.46958360222258 L289.40993221413254,-111.09406435904309 A310,310,0,0,0,276.21202249839405,-140.73705491925952 Z" fill="blue" fill-opacity="1.0" stroke="none" />
<path d="M303.41363861159056,-116.46958360222258 A325,325,0,0,1,313.9258935439472,-84.11618965831924 L299.4370061496112,-80.23390398178142 A310,310,0,0,0,289.40993221413254,-111.09406435904309 Z" fill="blue" fill-opacity="1.0" stroke="none" />
<path d="M313.9258935439472,-84.11618965831924 A325,325,0,0,1,320.99871069341975,-50.841201138075036 L306.1833855844927,-48.49468416247157 A310,310,0,0,0,299.4370061496112,-80.23390398178142 Z" fill="#eee" fill-opacity="1.0" stroke="none" />
<path d="M320.99871069341975,-50.841201138075036 A325,325,0,0,1,324.5545987952365,-17.009185778956745 L309.5751557739179,-16.224146435312587 A310,310,0,0,0,306.1833855844927,-48.49468416247157 Z" fill="blue" fill-opacity="1.0" stroke="none" />
<path d="M324.5545987952365,-17.009185778956745 A325,325,0,0,1,324.5545987952365,17.009185778956745 L309.5751557739179,16.224146435312587 A310,310,0,0,0,309.5751557739179,-16.224146435312587 Z" fill="blue" fill-opacity="1.0" stroke="none" />
<path d="M324.5545987952365,17.009185778956745 A325,325,0,0,1,320.99871069341975,50.841201138075036 L306.1833855844927,48.49468416247157 A310,310,0,0,0,309.5751557739179,16.224146435312587 Z" fill="blue" fill-opacity="1.0" stroke="none" />
<path d="M320.99871069341975,50.841201138075036 A325,325,0,0,1,313.9258935439472,84.11618965831924 L299.4370061496112,80.23390398178142 A310,310,0,0,0,306.1833855844927,48.49468416247157 Z" fill="blue" fill-opacity="1.0" stroke="none" />
<path d="M313.9258935439472,84.11618965831924 A325,325,0,0,1,303.41363861159056,116.46958360222258 L289.40993221413254,111.09406435904309 A310,310,0,0,0,299.4370061496112,80.23390398178142 Z" fill="#eee" fill-opacity="1.0" stroke="none" />
<path d="M303.41363861159056,116.46958360222258 A325,325,0,0,1,289.57712036121956,147.54691241535272 L276.21202249839405,140.73705491925952 A310,310,0,0,0,289.40993221413254,111.09406435904309 Z" fill="blue" fill-opacity="1.0" stroke="none" />
<path d="M-17.898897035086794,-341.53130088606423 A342,342,0,0,1,17.898897035086836,-341.53130088606423 L17.11385769144268,-326.55185786474567 A327,327,0,0,0,-17.113857691442636,-326.55185786474567 Z" fill="blue" fill-opacity="1.0" stroke="none" />
<path d="M17.898897035086836,-341.53130088606423 A342,342,0,0,1,53.500587043758976,-337.7894124835371 L51.15407006815551,-322.97408737461006 A327,327,0,0,0,17.11385769144268,-326.55185786474567 Z" fill="blue" fill-opacity="1.0" stroke="none" />
<path d="M53.500587043758976,-337.7894124835371 A342,342,0,0,1,88.51611342506209,-330.34663259086136 L84.63382774852428,-315.85774519652534 A327,327,0,0,0,51.15407006815551,-322.97408737461006 Z" fill="blue" fill-opacity="1.0" stroke="none" />
<path d="M88.51611342506209,-330.34663259086136 A342,342,0,0,1,122.56183874449273,-319.284505862043 L117.18631950131322,-305.28079946458496 A327,327,0,0,0,84.63382774852428,-315.85774519652534 Z" fill="blue" fill-opacity="1.0" stroke="none" />
<path d="M122.56183874449273,-319.284505862043 A342,342,0,0,1,155.26475091092502,-304.72423127242183 L148.45489341483182,-291.3591334095963 A327,327,0,0,0,117.18631950131322,-305.28079946458496 Z" fill="blue" fill-opacity="1.0" stroke="none" />
<path d="M155.26475091092502,-304.72423127242183 A342,342,0,0,1,186.26654997513927,-286.825334237335 L178.09696444991386,-274.24527571815366 A327,327,0,0,0,148.45489341483182,-291.3591334095963 Z" fill="blue" fill-opacity="1.0" stroke="none" />
<path d="M186.26654997513927,-286.825334237335 A342,342,0,0,1,215.22757373904437,-265.78391881828406 L205.78776787329681,-254.12672939642948 A327,327,0,0,0,178.09696444991386,-274.24527571815366 Z" fill="#eee" fill-opacity="1.0" stroke="none" />
<path d="M215.22757373904437,-265.78391881828406 A342,342,0,0,1,241.83051916579927,-241.83051916579925 L231.22391744800106,-231.22391744800103 A327,327,0,0,0,205.78776787329681,-254.12672939642948 Z" fill="#eee" fill-opacity="1.0" stroke="none" />
<path d="M241.83051916579927,-241.83051916579925 A342,342,0,0,1,265.78391881828406,-215.22757373904437 L254.12672939642948,-205.78776787329681 A327,327,0,0,0,231.22391744800106,-231.22391744800103 Z" fill="#eee" fill-opacity="1.0" stroke="none" />
<path d="M265.78391881828406,-215.22757373904437 A342,342,0,0,1,286.825334237335,-186.26654997513927 L274.24527571815366,-178.09696444991386 A327,327,0,0,0,254.12672939642948,-205.78776787329681 Z" fill="#eee" fill-opacity="1.0" stroke="none" />
<path d="M286.825334237335,-186.26654997513927 A342,342,0,0,1,304.72423127242183,-155.26475091092502 L291.3591334095963,-148.45489341483182 A327,327,0,0,0,274.24527571815366,-178.09696444991386 Z" fill="blue" fill-opacity="1.0" stroke="none" />
<path d="M304.72423127242183,-155.26475091092502 A342,342,0,0,1,319.284505862043,-122.56183874449269 L305.28079946458496,-117.18631950131319 A327,327,0,0,0,291.3591334095963,-148.45489341483182 Z" fill="blue" fill-opacity="1.0" stroke="none" />
<path d="M319.284505862043,-122.56183874449269 A342,342,0,0,1,330.34663259086136,-88.51611342506209 L315.85774519652534,-84.63382774852428 A327,327,0,0,0,305.28079946458496,-117.18631950131319 Z" fill="blue" fill-opacity="1.0" stroke="none" />
<path d="M330.34663259086136,-88.51611342506209 A342,342,0,0,1,337.7894124835371,-53.500587043758955 L322.97408737461006,-51.15407006815549 A327,327,0,0,0,315.85774519652534,-84.63382774852428 Z" fill="blue" fill-opacity="1.0" stroke="none" />
<path d="M337.7894124835371,-53.500587043758955 A342,342,0,0,1,341.53130088606423,-17.89889703508679 L326.55185786474567,-17.113857691442632 A327,327,0,0,0,322.97408737461006,-51.15407006815549 Z" fill="blue" fill-opacity="1.0" stroke="none" />
<path d="M341.53130088606423,-17.89889703508679 A342,342,0,0,1,341.53130088606423,17.89889703508679 L326.55185786474567,17.113857691442632 A327,327,0,0,0,326.55185786474567,-17.113857691442632 Z" fill="blue" fill-opacity="1.0" stroke="none" />
<path d="M341.53130088606423,17.89889703508679 A342,342,0,0,1,337.7894124835371,53.500587043758955 L322.97408737461006,51.15407006815549 A327,327,0,0,0,326.55185786474567,17.113857691442632 Z" fill="blue" fill-opacity="1.0" stroke="none" />
<path d="M337.7894124835371,53.500587043758955 A342,342,0,0,1,330.34663259086136,88.51611342506209 L315.85774519652534,84.63382774852428 A327,327,0,0,0,322.97408737461006,51.15407006815549 Z" fill="blue" fill-opacity="1.0" stroke="none" />
<path d="M330.34663259086136,88.51611342506209 A342,342,0,0,1,319.284505862043,122.56183874449269 L305.28079946458496,117.18631950131319 A327,327,0,0,0,315.85774519652534,84.63382774852428 Z" fill="blue" fill-opacity="1.0" stroke="none" />
<path d="M319.284505862043,122.56183874449269 A342,342,0,0,1,304.72423127242183,155.26475091092502 L291.3591334095963,148.45489341483182 A327,327,0,0,0,305.28079946458496,117.18631950131319 Z" fill="blue" fill-opacity="1.0" stroke="none" />
</svg>