<?xml version="1.0" encoding="UTF-8"?>
<svg xmlns="http://www.w3.org/2000/svg" xmlns:xlink="http://www.w3.org/1999/xlink"
     width="400" height="400" viewBox="-200.0 -200.0 400 400">
<defs>
</defs>
<rect x="-200.0" y="-200.0" width="400" height="400" fill="white" />
<text x="109.99978303969371" y="-96.0" font-size="12">A</text>
<text x="109.99978303969371" y="-85.47368421052632" font-size="12">B</text>
<text x="109.99974429678187" y="-74.94736842105263" font-size="12">C</text>
<text x="109.99974429678187" y="-64.42105263157895" font-size="12">D</text>
<text x="109.99976754252896" y="-53.89473684210526" font-size="12">E</text>
<text x="109.99976754252896" y="-43.368421052631575" font-size="12">F</text>
<text x="109.99976754252896" y="-32.84210526315789" font-size="12">G</text>
<text x="109.9998450283527" y="-22.315789473684205" font-size="12">H</text>
<text x="109.9997907882761" y="-11.78947368421052" font-size="12">I</text>
<text x="109.9997907882761" y="-1.2631578947368354" font-size="12">J</text>
<text x="110.0" y="9.26315789473685" font-size="12">K</text>
<text x="109.99968230812291" y="19.789473684210535" font-size="12">L</text>
<text x="109.99966681095822" y="30.31578947368422" font-size="12">M</text>
<text x="109.99966681095822" y="40.84210526315792" font-size="12">N</text>
<text x="109.99968230812291" y="51.36842105263159" font-size="12">O</text>
<text x="109.99968230812291" y="61.89473684210526" font-size="12">P</text>
<text x="109.99968230812291" y="72.42105263157896" font-size="12">Q</text>
<text x="109.99928713042215" y="82.94736842105266" font-size="12">R</text>
<text x="109.99989926842923" y="93.47368421052633" font-size="12">S</text>
<text x="109.99989926842923" y="104.0" font-size="12">T</text>
<path d="M72.4710845183208,-100.0 L99.99978303969371,-100.0" stroke="black" stroke-width="2" stroke-linecap="round" />
<circle cx="99.99978303969371" cy="-100.0" r="0" fill="black" />
<path d="M72.4710845183208,-89.47368421052632 L99.99978303969371,-89.47368421052632" stroke="black" stroke-width="2" stroke-linecap="round" />
<circle cx="99.99978303969371" cy="-89.47368421052632" r="0" fill="black" />
<path d="M64.81777097073424,-94.73684210526315 L72.4710845183208,-94.73684210526315" stroke="black" stroke-width="2" stroke-linecap="round" />
<path d="M72.4710845183208,-100.0 L72.4710845183208,-89.47368421052632" stroke="black" stroke-width="2" stroke-linecap="round" />
<circle cx="72.4710845183208" cy="-94.73684210526315" r="0" fill="black" />
<path d="M81.71541448348745,-78.94736842105263 L99.99974429678187,-78.94736842105263" stroke="black" stroke-width="2" stroke-linecap="round" />
<circle cx="99.99974429678187" cy="-78.94736842105263" r="0" fill="black" />
<path d="M81.71541448348745,-68.42105263157895 L99.99974429678187,-68.42105263157895" stroke="black" stroke-width="2" stroke-linecap="round" />
<circle cx="99.99974429678187" cy="-68.42105263157895" r="0" fill="black" />
<path d="M64.81777097073424,-73.68421052631578 L81.71541448348745,-73.68421052631578" stroke="black" stroke-width="2" stroke-linecap="round" />
<path d="M81.71541448348745,-78.94736842105263 L81.71541448348745,-68.42105263157895" stroke="black" stroke-width="2" stroke-linecap="round" />
<circle cx="81.71541448348745" cy="-73.68421052631578" r="0" fill="black" />
<path d="M-100.0,-84.21052631578947 L64.81777097073424,-84.21052631578947" stroke="black" stroke-width="2" stroke-linecap="round" />
<path d="M64.81777097073424,-94.73684210526315 L64.81777097073424,-73.68421052631578" stroke="black" stroke-width="2" stroke-linecap="round" />
<circle cx="64.81777097073424" cy="-84.21052631578947" r="0" fill="black" />
<path d="M42.64638805838075,-57.89473684210526 L99.99976754252896,-57.89473684210526" stroke="black" stroke-width="2" stroke-linecap="round" />
<circle cx="99.99976754252896" cy="-57.89473684210526" r="0" fill="black" />
<path d="M90.6071684537545,-47.368421052631575 L99.99976754252896,-47.368421052631575" stroke="black" stroke-width="2" stroke-linecap="round" />
<circle cx="99.99976754252896" cy="-47.368421052631575" r="0" fill="black" />
<path d="M90.6071684537545,-36.84210526315789 L99.99976754252896,-36.84210526315789" stroke="black" stroke-width="2" stroke-linecap="round" />
<circle cx="99.99976754252896" cy="-36.84210526315789" r="0" fill="black" />
<path d="M42.64638805838075,-42.10526315789473 L90.6071684537545,-42.10526315789473" stroke="black" stroke-width="2" stroke-linecap="round" />
<path d="M90.6071684537545,-47.368421052631575 L90.6071684537545,-36.84210526315789" stroke="black" stroke-width="2" stroke-linecap="round" />
<circle cx="90.6071684537545" cy="-42.10526315789473" r="0" fill="black" />
<path d="M-72.99655463159307,-50.0 L42.64638805838075,-50.0" stroke="black" stroke-width="2" stroke-linecap="round" />
<path d="M42.64638805838075,-57.89473684210526 L42.64638805838075,-42.10526315789473" stroke="black" stroke-width="2" stroke-linecap="round" />
<circle cx="42.64638805838075" cy="-50.0" r="0" fill="black" />
<path d="M84.11075699659216,-26.315789473684205 L99.9998450283527,-26.315789473684205" stroke="black" stroke-width="2" stroke-linecap="round" />
<circle cx="99.9998450283527" cy="-26.315789473684205" r="0" fill="black" />
<path d="M93.67227518098466,-15.78947368421052 L99.9997907882761,-15.78947368421052" stroke="black" stroke-width="2" stroke-linecap="round" />
<circle cx="99.9997907882761" cy="-15.78947368421052" r="0" fill="black" />
<path d="M93.67227518098466,-5.263157894736835 L99.9997907882761,-5.263157894736835" stroke="black" stroke-width="2" stroke-linecap="round" />
<circle cx="99.9997907882761" cy="-5.263157894736835" r="0" fill="black" />
<path d="M84.11075699659216,-10.526315789473678 L93.67227518098466,-10.526315789473678" stroke="black" stroke-width="2" stroke-linecap="round" />
<path d="M93.67227518098466,-15.78947368421052 L93.67227518098466,-5.263157894736835" stroke="black" stroke-width="2" stroke-linecap="round" />
<circle cx="93.67227518098466" cy="-10.526315789473678" r="0" fill="black" />
<path d="M4.363896983682224,-18.42105263157894 L84.11075699659216,-18.42105263157894" stroke="black" stroke-width="2" stroke-linecap="round" />
<path d="M84.11075699659216,-26.315789473684205 L84.11075699659216,-10.526315789473678" stroke="black" stroke-width="2" stroke-linecap="round" />
<circle cx="84.11075699659216" cy="-18.42105263157894" r="0" fill="black" />
<path d="M4.363896983682224,5.26315789473685 L100.0,5.26315789473685" stroke="black" stroke-width="2" stroke-linecap="round" />
<circle cx="100.0" cy="5.26315789473685" r="0" fill="black" />
<path d="M1.991668491780672,-6.578947368421046 L4.363896983682224,-6.578947368421046" stroke="black" stroke-width="2" stroke-linecap="round" />
<path d="M4.363896983682224,-18.42105263157894 L4.363896983682224,5.26315789473685" stroke="black" stroke-width="2" stroke-linecap="round" />
<circle cx="4.363896983682224" cy="-6.578947368421046" r="0" fill="black" />
<path d="M81.14056265478519,15.789473684210535 L99.99968230812291,15.789473684210535" stroke="black" stroke-width="2" stroke-linecap="round" />
<circle cx="99.99968230812291" cy="15.789473684210535" r="0" fill="black" />
<path d="M86.57486042962867,26.31578947368422 L99.99966681095822,26.31578947368422" stroke="black" stroke-width="2" stroke-linecap="round" />
<circle cx="99.99966681095822" cy="26.31578947368422" r="0" fill="black" />
<path d="M86.57486042962867,36.84210526315792 L99.99966681095822,36.84210526315792" stroke="black" stroke-width="2" stroke-linecap="round" />
<circle cx="99.99966681095822" cy="36.84210526315792" r="0" fill="black" />
<path d="M81.14056265478519,31.57894736842107 L86.57486042962867,31.57894736842107" stroke="black" stroke-width="2" stroke-linecap="round" />
<path d="M86.57486042962867,26.31578947368422 L86.57486042962867,36.84210526315792" stroke="black" stroke-width="2" stroke-linecap="round" />
<circle cx="86.57486042962867" cy="31.57894736842107" r="0" fill="black" />
<path d="M28.669177491468503,23.684210526315802 L81.14056265478519,23.684210526315802" stroke="black" stroke-width="2" stroke-linecap="round" />
<path d="M81.14056265478519,15.789473684210535 L81.14056265478519,31.57894736842107" stroke="black" stroke-width="2" stroke-linecap="round" />
<circle cx="81.14056265478519" cy="23.684210526315802" r="0" fill="black" />
<path d="M28.669177491468503,47.36842105263159 L99.99968230812291,47.36842105263159" stroke="black" stroke-width="2" stroke-linecap="round" />
<circle cx="99.99968230812291" cy="47.36842105263159" r="0" fill="black" />
<path d="M10.058554874666086,35.5263157894737 L28.669177491468503,35.5263157894737" stroke="black" stroke-width="2" stroke-linecap="round" />
<path d="M28.669177491468503,23.684210526315802 L28.669177491468503,47.36842105263159" stroke="black" stroke-width="2" stroke-linecap="round" />
<circle cx="28.669177491468503" cy="35.5263157894737" r="0" fill="black" />
<path d="M50.15157970542447,57.89473684210526 L99.99968230812291,57.89473684210526" stroke="black" stroke-width="2" stroke-linecap="round" />
<circle cx="99.99968230812291" cy="57.89473684210526" r="0" fill="black" />
<path d="M50.15157970542447,68.42105263157896 L99.99968230812291,68.42105263157896" stroke="black" stroke-width="2" stroke-linecap="round" />
<circle cx="99.99968230812291" cy="68.42105263157896" r="0" fill="black" />
<path d="M10.058554874666086,63.15789473684211 L50.15157970542447,63.15789473684211" stroke="black" stroke-width="2" stroke-linecap="round" />
<path d="M50.15157970542447,57.89473684210526 L50.15157970542447,68.42105263157896" stroke="black" stroke-width="2" stroke-linecap="round" />
<circle cx="50.15157970542447" cy="63.15789473684211" r="0" fill="black" />
<path d="M5.270543109373591,49.342105263157904 L10.058554874666086,49.342105263157904" stroke="black" stroke-width="2" stroke-linecap="round" />
<path d="M10.058554874666086,35.5263157894737 L10.058554874666086,63.15789473684211" stroke="black" stroke-width="2" stroke-linecap="round" />
<circle cx="10.058554874666086" cy="49.342105263157904" r="0" fill="black" />
<path d="M5.270543109373591,78.94736842105266 L99.99928713042215,78.94736842105266" stroke="black" stroke-width="2" stroke-linecap="round" />
<circle cx="99.99928713042215" cy="78.94736842105266" r="0" fill="black" />
<path d="M1.991668491780672,64.14473684210529 L5.270543109373591,64.14473684210529" stroke="black" stroke-width="2" stroke-linecap="round" />
<path d="M5.270543109373591,49.342105263157904 L5.270543109373591,78.94736842105266" stroke="black" stroke-width="2" stroke-linecap="round" />
<circle cx="5.270543109373591" cy="64.14473684210529" r="0" fill="black" />
<path d="M-72.99655463159307,28.78289473684212 L1.991668491780672,28.78289473684212" stroke="black" stroke-width="2" stroke-linecap="round" />
<path d="M1.991668491780672,-6.578947368421046 L1.991668491780672,64.14473684210529" stroke="black" stroke-width="2" stroke-linecap="round" />
<circle cx="1.991668491780672" cy="28.78289473684212" r="0" fill="black" />
<path d="M-76.3333499023853,-10.60855263157894 L-72.99655463159307,-10.60855263157894" stroke="black" stroke-width="2" stroke-linecap="round" />
<path d="M-72.99655463159307,-50.0 L-72.99655463159307,28.78289473684212" stroke="black" stroke-width="2" stroke-linecap="round" />
<circle cx="-72.99655463159307" cy="-10.60855263157894" r="0" fill="black" />
<path d="M71.14386858745243,89.47368421052633 L99.99989926842923,89.47368421052633" stroke="black" stroke-width="2" stroke-linecap="round" />
<circle cx="99.99989926842923" cy="89.47368421052633" r="0" fill="black" />
<path d="M71.14386858745243,100.0 L99.99989926842923,100.0" stroke="black" stroke-width="2" stroke-linecap="round" />
<circle cx="99.99989926842923" cy="100.0" r="0" fill="black" />
<path d="M-76.3333499023853,94.73684210526316 L71.14386858745243,94.73684210526316" stroke="black" stroke-width="2" stroke-linecap="round" />
<path d="M71.14386858745243,89.47368421052633 L71.14386858745243,100.0" stroke="black" stroke-width="2" stroke-linecap="round" />
<circle cx="71.14386858745243" cy="94.73684210526316" r="0" fill="black" />
<path d="M-100.0,42.06414473684211 L-76.3333499023853,42.06414473684211" stroke="black" stroke-width="2" stroke-linecap="round" />
<path d="M-76.3333499023853,-10.60855263157894 L-76.3333499023853,94.73684210526316" stroke="black" stroke-width="2" stroke-linecap="round" />
<circle cx="-76.3333499023853" cy="42.06414473684211" r="0" fill="black" />
<path d="M-120.0,-21.073190789473678 L-100.0,-21.073190789473678" stroke="black" stroke-width="2" />
<path d="M-100.0,-84.21052631578947 L-100.0,42.06414473684211" stroke="black" stroke-width="2" stroke-linecap="round" />
<circle cx="-100.0" cy="-21.073190789473678" r="0" fill="black" />
<path d="M134.9997830396937,-103.46410161513775 L131.9997830396937,-98.26794919243112 L137.9997830396937,-98.26794919243112 Z" fill="blue" opacity="1.0" stroke="black" stroke-width="1" />
<path d="M134.99974429678187,-82.41147003619038 L131.99974429678187,-77.21531761348375 L137.99974429678187,-77.21531761348375 Z" fill="blue" opacity="1.0" stroke="black" stroke-width="1" />
<rect x="130.9997830396937" y="-93.47368421052632" width="8.0" height="8.0" transform="rotate(45.0,134.9997830396937,-89.47368421052632)" fill="orange" opacity="1.0" stroke="black" stroke-width="1" />
<circle cx="81.71541448348745" cy="-78.94736842105263" r="7.0" fill="red" opacity="1.0" />
<rect x="83.85757939013466" y="-85.94736842105263" width="14.0" height="14.0" fill="purple" opacity="1.0" />
<path d="M99.99974429678187,-88.18497272808665 L91.99974429678187,-74.32856626753562 L107.99974429678187,-74.32856626753562 Z" transform="rotate(180.0,99.99974429678187,-78.94736842105263)" fill="green" opacity="1.0" />
</svg>