<?xml version="1.0" encoding="UTF-8"?>
<svg xmlns="http://www.w3.org/2000/svg" xmlns:xlink="http://www.w3.org/1999/xlink"
     width="400" height="400" viewBox="-200.0 -200.0 400 400">
<defs>
</defs>
<rect x="-200.0" y="-200.0" width="400" height="400" fill="white" />
<text x="109.99982200940192" y="-96.0" font-size="12">n25</text>
<text x="109.99982200940192" y="-85.47368421052632" font-size="12">n26</text>
<text x="109.99979022536655" y="-74.94736842105263" font-size="12">n29</text>
<text x="109.99979022536655" y="-64.42105263157895" font-size="12">n30</text>
<text x="109.9998092957878" y="-53.89473684210526" font-size="12">n17</text>
<text x="109.9998092957878" y="-43.368421052631575" font-size="12">n35</text>
<text x="109.9998092957878" y="-32.84210526315789" font-size="12">n36</text>
<text x="109.99987286385854" y="-22.315789473684205" font-size="12">n31</text>
<text x="109.99982836620902" y="-11.78947368421052" font-size="12">n37</text>
<text x="109.99982836620902" y="-1.2631578947368354" font-size="12">n38</text>
<text x="110.0" y="9.26315789473685" font-size="12">n10</text>
<text x="109.99973937090996" y="19.789473684210535" font-size="12">n27</text>
<text x="109.99972665729584" y="30.31578947368422" font-size="12">n33</text>
<text x="109.99972665729584" y="40.84210526315792" font-size="12">n34</text>
<text x="109.99973937090996" y="51.36842105263159" font-size="12">n16</text>
<text x="109.99973937090996" y="61.89473684210526" font-size="12">n19</text>
<text x="109.99973937090996" y="72.42105263157896" font-size="12">n20</text>
<text x="109.99941517374921" y="82.94736842105266" font-size="12">n12</text>
<text x="109.99991736150804" y="93.47368421052633" font-size="12">n23</text>
<text x="109.99991736150804" y="104.0" font-size="12">n24</text>
<path d="M77.41573924660528,-100.0 L99.99982200940192,-100.0" stroke="black" stroke-width="2" stroke-linecap="round" />
<circle cx="99.99982200940192" cy="-100.0" r="0" fill="black" />
<path d="M77.41573924660528,-89.47368421052632 L99.99982200940192,-89.47368421052632" stroke="black" stroke-width="2" stroke-linecap="round" />
<circle cx="99.99982200940192" cy="-89.47368421052632" r="0" fill="black" />
<path d="M71.13708911593767,-94.73684210526315 L77.41573924660528,-94.73684210526315" stroke="black" stroke-width="2" stroke-linecap="round" />
<path d="M77.41573924660528,-100.0 L77.41573924660528,-89.47368421052632" stroke="black" stroke-width="2" stroke-linecap="round" />
<circle cx="77.41573924660528" cy="-94.73684210526315" r="0" fill="black" />
<path d="M84.999632573703,-78.94736842105263 L99.99979022536655,-78.94736842105263" stroke="black" stroke-width="2" stroke-linecap="round" />
<circle cx="99.99979022536655" cy="-78.94736842105263" r="0" fill="black" />
<path d="M84.999632573703,-68.42105263157895 L99.99979022536655,-68.42105263157895" stroke="black" stroke-width="2" stroke-linecap="round" />
<circle cx="99.99979022536655" cy="-68.42105263157895" r="0" fill="black" />
<path d="M71.13708911593767,-73.68421052631578 L84.999632573703,-73.68421052631578" stroke="black" stroke-width="2" stroke-linecap="round" />
<path d="M84.999632573703,-78.94736842105263 L84.999632573703,-68.42105263157895" stroke="black" stroke-width="2" stroke-linecap="round" />
<circle cx="84.999632573703" cy="-73.68421052631578" r="0" fill="black" />
<path d="M-64.0766471052938,-84.21052631578947 L71.13708911593767,-84.21052631578947" stroke="black" stroke-width="2" stroke-linecap="round" />
<path d="M71.13708911593767,-94.73684210526315 L71.13708911593767,-73.68421052631578" stroke="black" stroke-width="2" stroke-linecap="round" />
<circle cx="71.13708911593767" cy="-84.21052631578947" r="0" fill="black" />
<path d="M52.948058266204896,-57.89473684210526 L99.9998092957878,-57.89473684210526" stroke="black" stroke-width="2" stroke-linecap="round" />
<circle cx="99.9998092957878" cy="-57.89473684210526" r="0" fill="black" />
<path d="M92.29427846533602,-47.368421052631575 L99.9998092957878,-47.368421052631575" stroke="black" stroke-width="2" stroke-linecap="round" />
<circle cx="99.9998092957878" cy="-47.368421052631575" r="0" fill="black" />
<path d="M92.29427846533602,-36.84210526315789 L99.9998092957878,-36.84210526315789" stroke="black" stroke-width="2" stroke-linecap="round" />
<circle cx="99.9998092957878" cy="-36.84210526315789" r="0" fill="black" />
<path d="M52.948058266204896,-42.10526315789473 L92.29427846533602,-42.10526315789473" stroke="black" stroke-width="2" stroke-linecap="round" />
<path d="M92.29427846533602,-47.368421052631575 L92.29427846533602,-36.84210526315789" stroke="black" stroke-width="2" stroke-linecap="round" />
<circle cx="92.29427846533602" cy="-42.10526315789473" r="0" fill="black" />
<path d="M-41.92347322359788,-50.0 L52.948058266204896,-50.0" stroke="black" stroke-width="2" stroke-linecap="round" />
<path d="M52.948058266204896,-57.89473684210526 L52.948058266204896,-42.10526315789473" stroke="black" stroke-width="2" stroke-linecap="round" />
<circle cx="52.948058266204896" cy="-50.0" r="0" fill="black" />
<path d="M86.96473141479794,-26.315789473684205 L99.99987286385854,-26.315789473684205" stroke="black" stroke-width="2" stroke-linecap="round" />
<circle cx="99.99987286385854" cy="-26.315789473684205" r="0" fill="black" />
<path d="M94.80884063945501,-15.78947368421052 L99.99982836620902,-15.78947368421052" stroke="black" stroke-width="2" stroke-linecap="round" />
<circle cx="99.99982836620902" cy="-15.78947368421052" r="0" fill="black" />
<path d="M94.80884063945501,-5.263157894736835 L99.99982836620902,-5.263157894736835" stroke="black" stroke-width="2" stroke-linecap="round" />
<circle cx="99.99982836620902" cy="-5.263157894736835" r="0" fill="black" />
<path d="M86.96473141479794,-10.526315789473678 L94.80884063945501,-10.526315789473678" stroke="black" stroke-width="2" stroke-linecap="round" />
<path d="M94.80884063945501,-15.78947368421052 L94.80884063945501,-5.263157894736835" stroke="black" stroke-width="2" stroke-linecap="round" />
<circle cx="94.80884063945501" cy="-10.526315789473678" r="0" fill="black" />
<path d="M21.54174437433052,-18.42105263157894 L86.96473141479794,-18.42105263157894" stroke="black" stroke-width="2" stroke-linecap="round" />
<path d="M86.96473141479794,-26.315789473684205 L86.96473141479794,-10.526315789473678" stroke="black" stroke-width="2" stroke-linecap="round" />
<circle cx="86.96473141479794" cy="-18.42105263157894" r="0" fill="black" />
<path d="M21.54174437433052,5.26315789473685 L100.0,5.26315789473685" stroke="black" stroke-width="2" stroke-linecap="round" />
<circle cx="100.0" cy="5.26315789473685" r="0" fill="black" />
<path d="M19.595607888736254,-6.578947368421046 L21.54174437433052,-6.578947368421046" stroke="black" stroke-width="2" stroke-linecap="round" />
<path d="M21.54174437433052,-18.42105263157894 L21.54174437433052,5.26315789473685" stroke="black" stroke-width="2" stroke-linecap="round" />
<circle cx="21.54174437433052" cy="-6.578947368421046" r="0" fill="black" />
<path d="M84.52803377052393,15.789473684210535 L99.99973937090996,15.789473684210535" stroke="black" stroke-width="2" stroke-linecap="round" />
<circle cx="99.99973937090996" cy="15.789473684210535" r="0" fill="black" />
<path d="M88.98624056186432,26.31578947368422 L99.99972665729584,26.31578947368422" stroke="black" stroke-width="2" stroke-linecap="round" />
<circle cx="99.99972665729584" cy="26.31578947368422" r="0" fill="black" />
<path d="M88.98624056186432,36.84210526315792 L99.99972665729584,36.84210526315792" stroke="black" stroke-width="2" stroke-linecap="round" />
<circle cx="99.99972665729584" cy="36.84210526315792" r="0" fill="black" />
<path d="M84.52803377052393,31.57894736842107 L88.98624056186432,31.57894736842107" stroke="black" stroke-width="2" stroke-linecap="round" />
<path d="M88.98624056186432,26.31578947368422 L88.98624056186432,36.84210526315792" stroke="black" stroke-width="2" stroke-linecap="round" />
<circle cx="88.98624056186432" cy="31.57894736842107" r="0" fill="black" />
<path d="M41.481389037686654,23.684210526315802 L84.52803377052393,23.684210526315802" stroke="black" stroke-width="2" stroke-linecap="round" />
<path d="M84.52803377052393,15.789473684210535 L84.52803377052393,31.57894736842107" stroke="black" stroke-width="2" stroke-linecap="round" />
<circle cx="84.52803377052393" cy="23.684210526315802" r="0" fill="black" />
<path d="M41.481389037686654,47.36842105263159 L99.99973937090996,47.36842105263159" stroke="black" stroke-width="2" stroke-linecap="round" />
<circle cx="99.99973937090996" cy="47.36842105263159" r="0" fill="black" />
<path d="M26.213546240152198,35.5263157894737 L41.481389037686654,35.5263157894737" stroke="black" stroke-width="2" stroke-linecap="round" />
<path d="M41.481389037686654,23.684210526315802 L41.481389037686654,47.36842105263159" stroke="black" stroke-width="2" stroke-linecap="round" />
<circle cx="41.481389037686654" cy="35.5263157894737" r="0" fill="black" />
<path d="M59.10519167285281,57.89473684210526 L99.99973937090996,57.89473684210526" stroke="black" stroke-width="2" stroke-linecap="round" />
<circle cx="99.99973937090996" cy="57.89473684210526" r="0" fill="black" />
<path d="M59.10519167285281,68.42105263157896 L99.99973937090996,68.42105263157896" stroke="black" stroke-width="2" stroke-linecap="round" />
<circle cx="99.99973937090996" cy="68.42105263157896" r="0" fill="black" />
<path d="M26.213546240152198,63.15789473684211 L59.10519167285281,63.15789473684211" stroke="black" stroke-width="2" stroke-linecap="round" />
<path d="M59.10519167285281,57.89473684210526 L59.10519167285281,68.42105263157896" stroke="black" stroke-width="2" stroke-linecap="round" />
<circle cx="59.10519167285281" cy="63.15789473684211" r="0" fill="black" />
<path d="M22.285541656402742,49.342105263157904 L26.213546240152198,49.342105263157904" stroke="black" stroke-width="2" stroke-linecap="round" />
<path d="M26.213546240152198,35.5263157894737 L26.213546240152198,63.15789473684211" stroke="black" stroke-width="2" stroke-linecap="round" />
<circle cx="26.213546240152198" cy="49.342105263157904" r="0" fill="black" />
<path d="M22.285541656402742,78.94736842105266 L99.99941517374921,78.94736842105266" stroke="black" stroke-width="2" stroke-linecap="round" />
<circle cx="99.99941517374921" cy="78.94736842105266" r="0" fill="black" />
<path d="M19.595607888736254,64.14473684210529 L22.285541656402742,64.14473684210529" stroke="black" stroke-width="2" stroke-linecap="round" />
<path d="M22.285541656402742,49.342105263157904 L22.285541656402742,78.94736842105266" stroke="black" stroke-width="2" stroke-linecap="round" />
<circle cx="22.285541656402742" cy="64.14473684210529" r="0" fill="black" />
<path d="M-41.92347322359788,28.78289473684212 L19.595607888736254,28.78289473684212" stroke="black" stroke-width="2" stroke-linecap="round" />
<path d="M19.595607888736254,-6.578947368421046 L19.595607888736254,64.14473684210529" stroke="black" stroke-width="2" stroke-linecap="round" />
<circle cx="19.595607888736254" cy="28.78289473684212" r="0" fill="black" />
<path d="M-44.660924124139825,-10.60855263157894 L-41.92347322359788,-10.60855263157894" stroke="black" stroke-width="2" stroke-linecap="round" />
<path d="M-41.92347322359788,-50.0 L-41.92347322359788,28.78289473684212" stroke="black" stroke-width="2" stroke-linecap="round" />
<circle cx="-41.92347322359788" cy="-10.60855263157894" r="0" fill="black" />
<path d="M76.32691354699725,89.47368421052633 L99.99991736150804,89.47368421052633" stroke="black" stroke-width="2" stroke-linecap="round" />
<circle cx="99.99991736150804" cy="89.47368421052633" r="0" fill="black" />
<path d="M76.32691354699725,100.0 L99.99991736150804,100.0" stroke="black" stroke-width="2" stroke-linecap="round" />
<circle cx="99.99991736150804" cy="100.0" r="0" fill="black" />
<path d="M-44.660924124139825,94.73684210526316 L76.32691354699725,94.73684210526316" stroke="black" stroke-width="2" stroke-linecap="round" />
<path d="M76.32691354699725,89.47368421052633 L76.32691354699725,100.0" stroke="black" stroke-width="2" stroke-linecap="round" />
<circle cx="76.32691354699725" cy="94.73684210526316" r="0" fill="black" />
<path d="M-64.0766471052938,42.06414473684211 L-44.660924124139825,42.06414473684211" stroke="black" stroke-width="2" stroke-linecap="round" />
<path d="M-44.660924124139825,-10.60855263157894 L-44.660924124139825,94.73684210526316" stroke="black" stroke-width="2" stroke-linecap="round" />
<circle cx="-44.660924124139825" cy="42.06414473684211" r="0" fill="black" />
<path d="M-100.0,-21.073190789473678 L-64.0766471052938,-21.073190789473678" stroke="black" stroke-width="2" stroke-linecap="round" />
<path d="M-64.0766471052938,-84.21052631578947 L-64.0766471052938,42.06414473684211" stroke="black" stroke-width="2" stroke-linecap="round" />
<circle cx="-64.0766471052938" cy="-21.073190789473678" r="0" fill="black" />
<path d="M-120.0,-21.073190789473678 L-100.0,-21.073190789473678" stroke="black" stroke-width="2" />
<path d="M-100.0,-21.073190789473678 L-100.0,-21.073190789473678" stroke="black" stroke-width="2" stroke-linecap="round" />
<circle cx="-100.0" cy="-21.073190789473678" r="0" fill="black" />
<circle cx="26.213546240152198" cy="49.342105263157904" r="5.0" fill="black" opacity="1.0" stroke="black" stroke-width="1.0" />
<circle cx="41.481389037686654" cy="35.5263157894737" r="5.0" fill="black" opacity="1.0" stroke="black" stroke-width="1.0" />
<circle cx="50.810853075196164" cy="78.94736842105266" r="5.0" fill="red" opacity="1.0" stroke="black" stroke-width="1.0" />
<circle cx="52.947980136053815" cy="-50.0" r="5.0" fill="black" opacity="1.0" stroke="black" stroke-width="1.0" />
<circle cx="55.24735975488586" cy="-84.21052631578947" r="5.0" fill="red" opacity="1.0" stroke="black" stroke-width="1.0" />
<circle cx="59.10519167285281" cy="63.15789473684211" r="5.0" fill="black" opacity="1.0" stroke="black" stroke-width="1.0" />
<circle cx="71.13701304194038" cy="-84.21052631578947" r="5.0" fill="black" opacity="1.0" stroke="black" stroke-width="1.0" />
<circle cx="72.48487769266085" cy="-94.73684210526315" r="5.0" fill="red" opacity="1.0" stroke="black" stroke-width="1.0" />
<circle cx="76.32677725764474" cy="94.73684210526316" r="5.0" fill="black" opacity="1.0" stroke="black" stroke-width="1.0" />
<circle cx="84.52803377052393" cy="23.684210526315802" r="5.0" fill="black" opacity="1.0" stroke="black" stroke-width="1.0" />
</svg>